<svg aria-roledescription="flowchart-v2" role="graphics-document document" viewBox="0 0 1646.8089599609375 2860.8056640625" style="" class="flowchart" xmlns="http://www.w3.org/2000/svg" width="1631" height="2845"  id="render_svg_3172"><style>#render_svg_3172{font-family:"trebuchet ms",verdana,arial,sans-serif;font-size:16px;fill:#333;}@keyframes edge-animation-frame{from{stroke-dashoffset:0;}}@keyframes dash{to{stroke-dashoffset:0;}}#render_svg_3172 .edge-animation-slow{stroke-dasharray:9,5!important;stroke-dashoffset:900;animation:dash 50s linear infinite;stroke-linecap:round;}#render_svg_3172 .edge-animation-fast{stroke-dasharray:9,5!important;stroke-dashoffset:900;animation:dash 20s linear infinite;stroke-linecap:round;}#render_svg_3172 .error-icon{fill:#552222;}#render_svg_3172 .error-text{fill:#552222;stroke:#552222;}#render_svg_3172 .edge-thickness-normal{stroke-width:1px;}#render_svg_3172 .edge-thickness-thick{stroke-width:3.5px;}#render_svg_3172 .edge-pattern-solid{stroke-dasharray:0;}#render_svg_3172 .edge-thickness-invisible{stroke-width:0;fill:none;}#render_svg_3172 .edge-pattern-dashed{stroke-dasharray:3;}#render_svg_3172 .edge-pattern-dotted{stroke-dasharray:2;}#render_svg_3172 .marker{fill:#333333;stroke:#333333;}#render_svg_3172 .marker.cross{stroke:#333333;}#render_svg_3172 svg{font-family:"trebuchet ms",verdana,arial,sans-serif;font-size:16px;}#render_svg_3172 p{margin:0;}#render_svg_3172 .label{font-family:"trebuchet ms",verdana,arial,sans-serif;color:#333;}#render_svg_3172 .cluster-label text{fill:#333;}#render_svg_3172 .cluster-label span{color:#333;}#render_svg_3172 .cluster-label span p{background-color:transparent;}#render_svg_3172 .label text,#render_svg_3172 span{fill:#333;color:#333;}#render_svg_3172 .node rect,#render_svg_3172 .node circle,#render_svg_3172 .node ellipse,#render_svg_3172 .node polygon,#render_svg_3172 .node path{fill:#ECECFF;stroke:#9370DB;stroke-width:1px;}#render_svg_3172 .rough-node .label text,#render_svg_3172 .node .label text,#render_svg_3172 .image-shape .label,#render_svg_3172 .icon-shape .label{text-anchor:middle;}#render_svg_3172 .node .katex path{fill:#000;stroke:#000;stroke-width:1px;}#render_svg_3172 .rough-node .label,#render_svg_3172 .node .label,#render_svg_3172 .image-shape .label,#render_svg_3172 .icon-shape .label{text-align:center;}#render_svg_3172 .node.clickable{cursor:pointer;}#render_svg_3172 .root .anchor path{fill:#333333!important;stroke-width:0;stroke:#333333;}#render_svg_3172 .arrowheadPath{fill:#333333;}#render_svg_3172 .edgePath .path{stroke:#333333;stroke-width:2.0px;}#render_svg_3172 .flowchart-link{stroke:#333333;fill:none;}#render_svg_3172 .edgeLabel{background-color:rgba(232,232,232, 0.8);text-align:center;}#render_svg_3172 .edgeLabel p{background-color:rgba(232,232,232, 0.8);}#render_svg_3172 .edgeLabel rect{opacity:0.5;background-color:rgba(232,232,232, 0.8);fill:rgba(232,232,232, 0.8);}#render_svg_3172 .labelBkg{background-color:rgba(232, 232, 232, 0.5);}#render_svg_3172 .cluster rect{fill:#ffffde;stroke:#aaaa33;stroke-width:1px;}#render_svg_3172 .cluster text{fill:#333;}#render_svg_3172 .cluster span{color:#333;}#render_svg_3172 div.mermaidTooltip{position:absolute;text-align:center;max-width:200px;padding:2px;font-family:"trebuchet ms",verdana,arial,sans-serif;font-size:12px;background:hsl(80, 100%, 96.2745098039%);border:1px solid #aaaa33;border-radius:2px;pointer-events:none;z-index:100;}#render_svg_3172 .flowchartTitleText{text-anchor:middle;font-size:18px;fill:#333;}#render_svg_3172 rect.text{fill:none;stroke-width:0;}#render_svg_3172 .icon-shape,#render_svg_3172 .image-shape{background-color:rgba(232,232,232, 0.8);text-align:center;}#render_svg_3172 .icon-shape p,#render_svg_3172 .image-shape p{background-color:rgba(232,232,232, 0.8);padding:2px;}#render_svg_3172 .icon-shape rect,#render_svg_3172 .image-shape rect{opacity:0.5;background-color:rgba(232,232,232, 0.8);fill:rgba(232,232,232, 0.8);}#render_svg_3172 :root{--mermaid-font-family:"trebuchet ms",verdana,arial,sans-serif;}</style><g><marker orient="auto" markerHeight="8" markerWidth="8" markerUnits="userSpaceOnUse" refY="5" refX="5" viewBox="0 0 10 10" class="marker flowchart-v2" id="render_svg_3172_flowchart-v2-pointEnd"><path style="stroke-width: 1; stroke-dasharray: 1, 0;" class="arrowMarkerPath" d="M 0 0 L 10 5 L 0 10 z"/></marker><marker orient="auto" markerHeight="8" markerWidth="8" markerUnits="userSpaceOnUse" refY="5" refX="4.5" viewBox="0 0 10 10" class="marker flowchart-v2" id="render_svg_3172_flowchart-v2-pointStart"><path style="stroke-width: 1; stroke-dasharray: 1, 0;" class="arrowMarkerPath" d="M 0 5 L 10 10 L 10 0 z"/></marker><marker orient="auto" markerHeight="11" markerWidth="11" markerUnits="userSpaceOnUse" refY="5" refX="11" viewBox="0 0 10 10" class="marker flowchart-v2" id="render_svg_3172_flowchart-v2-circleEnd"><circle style="stroke-width: 1; stroke-dasharray: 1, 0;" class="arrowMarkerPath" r="5" cy="5" cx="5"/></marker><marker orient="auto" markerHeight="11" markerWidth="11" markerUnits="userSpaceOnUse" refY="5" refX="-1" viewBox="0 0 10 10" class="marker flowchart-v2" id="render_svg_3172_flowchart-v2-circleStart"><circle style="stroke-width: 1; stroke-dasharray: 1, 0;" class="arrowMarkerPath" r="5" cy="5" cx="5"/></marker><marker orient="auto" markerHeight="11" markerWidth="11" markerUnits="userSpaceOnUse" refY="5.2" refX="12" viewBox="0 0 11 11" class="marker cross flowchart-v2" id="render_svg_3172_flowchart-v2-crossEnd"><path style="stroke-width: 2; stroke-dasharray: 1, 0;" class="arrowMarkerPath" d="M 1,1 l 9,9 M 10,1 l -9,9"/></marker><marker orient="auto" markerHeight="11" markerWidth="11" markerUnits="userSpaceOnUse" refY="5.2" refX="-1" viewBox="0 0 11 11" class="marker cross flowchart-v2" id="render_svg_3172_flowchart-v2-crossStart"><path style="stroke-width: 2; stroke-dasharray: 1, 0;" class="arrowMarkerPath" d="M 1,1 l 9,9 M 10,1 l -9,9"/></marker><g class="root"><g class="clusters"><g data-look="classic" id="offline" class="cluster"><rect height="1867.9305419921875" width="1103.2986145019531" y="895.875" x="8" style="fill:#FAFAFA !important;stroke:#595959 !important;stroke-width:1px !important;stroke-dasharray:5 5 !important"/><g transform="translate(519.6493072509766, 895.875)" class="cluster-label"><foreignObject height="24" width="80"><div style="display: table-cell; white-space: nowrap; line-height: 1.5; max-width: 200px; text-align: center;" xmlns="http://www.w3.org/1999/xhtml"><span class="nodeLabel"><p>离线进化层</p></span></div></foreignObject></g></g><g data-look="classic" id="online" class="cluster"><rect height="1544.9722290039062" width="507.5104217529297" y="8" x="1131.2986145019531" style="fill:#E6F4FF !important;stroke:#1890FF !important;stroke-width:2px !important"/><g transform="translate(1337.053825378418, 8)" class="cluster-label"><foreignObject height="24" width="96"><div style="display: table-cell; white-space: nowrap; line-height: 1.5; max-width: 200px; text-align: center;" xmlns="http://www.w3.org/1999/xhtml"><span class="nodeLabel"><p>在线交互模块</p></span></div></foreignObject></g></g><g data-look="classic" id="slow" class="cluster"><rect height="1817.9305419921875" width="528" y="920.875" x="563.2986145019531" style="fill:#FFF7E6 !important;stroke:#FA8C16 !important;stroke-width:2px !important"/><g transform="translate(739.2986145019531, 920.875)" class="cluster-label"><foreignObject height="24" width="176"><div style="display: table-cell; white-space: nowrap; line-height: 1.5; max-width: 200px; text-align: center;" xmlns="http://www.w3.org/1999/xhtml"><span class="nodeLabel"><p>慢进化模块（权重优化）</p></span></div></foreignObject></g></g><g data-look="classic" id="fast" class="cluster"><rect height="1007.8333129882812" width="515.2986145019531" y="1730.9722290039062" x="28" style="fill:#F6FFED !important;stroke:#52C41A !important;stroke-width:2px !important"/><g transform="translate(189.64930725097656, 1730.9722290039062)" class="cluster-label"><foreignObject height="24" width="192"><div style="display: table-cell; white-space: nowrap; line-height: 1.5; max-width: 200px; text-align: center;" xmlns="http://www.w3.org/1999/xhtml"><span class="nodeLabel"><p>快进化模块（提示词优化）</p></span></div></foreignObject></g></g></g><g class="edgePaths"><path marker-end="url(#render_svg_3172_flowchart-v2-pointEnd)" style="" class="edge-thickness-normal edge-pattern-solid edge-thickness-normal edge-pattern-solid flowchart-link" id="L_Start_UserInput_0" d="M1439.34,72L1439.34,76.167C1439.34,80.333,1439.34,88.667,1439.34,96.333C1439.34,104,1439.34,111,1439.34,114.5L1439.34,118"/><path marker-end="url(#render_svg_3172_flowchart-v2-pointEnd)" style="" class="edge-thickness-normal edge-pattern-solid edge-thickness-normal edge-pattern-solid flowchart-link" id="L_UserInput_StudentExec_0" d="M1359.368,176L1347.027,180.167C1334.685,184.333,1310.002,192.667,1297.661,200.333C1285.319,208,1285.319,215,1285.319,218.5L1285.319,222"/><path marker-end="url(#render_svg_3172_flowchart-v2-pointEnd)" style="" class="edge-thickness-normal edge-pattern-solid edge-thickness-normal edge-pattern-solid flowchart-link" id="L_StudentExec_ReturnResult_0" d="M1285.319,304L1285.319,310.167C1285.319,316.333,1285.319,328.667,1285.319,340.333C1285.319,352,1285.319,363,1285.319,368.5L1285.319,374"/><path marker-end="url(#render_svg_3172_flowchart-v2-pointEnd)" style="" class="edge-thickness-normal edge-pattern-solid edge-thickness-normal edge-pattern-solid flowchart-link" id="L_ReturnResult_SessionEnd_0" d="M1285.319,432L1285.319,436.167C1285.319,440.333,1285.319,448.667,1291.266,462.471C1297.213,476.275,1309.106,495.551,1315.052,505.189L1320.999,514.826"/><path marker-end="url(#render_svg_3172_flowchart-v2-pointEnd)" style="" class="edge-thickness-normal edge-pattern-solid edge-thickness-normal edge-pattern-solid flowchart-link" id="L_SessionEnd_UserInput_0" d="M1396.889,520.559L1403.965,509.966C1411.04,499.373,1425.19,478.186,1432.265,458.927C1439.34,439.667,1439.34,422.333,1439.34,403C1439.34,383.667,1439.34,362.333,1439.34,339C1439.34,315.667,1439.34,290.333,1439.34,267C1439.34,243.667,1439.34,222.333,1439.34,208.167C1439.34,194,1439.34,187,1439.34,183.5L1439.34,180"/><path marker-end="url(#render_svg_3172_flowchart-v2-pointEnd)" style="" class="edge-thickness-normal edge-pattern-solid edge-thickness-normal edge-pattern-solid flowchart-link" id="L_SessionEnd_MemoryPersist_0" d="M1358.83,670.375L1358.747,676.458C1358.663,682.542,1358.497,694.708,1248.237,712.987C1137.978,731.265,917.626,755.655,807.45,767.85L697.274,780.046"/><path marker-end="url(#render_svg_3172_flowchart-v2-pointEnd)" style="" class="edge-thickness-normal edge-pattern-solid edge-thickness-normal edge-pattern-solid flowchart-link" id="L_MemoryPersist_FastEvolve_0" d="M433.299,830.459L408.69,837.195C384.082,843.931,334.866,857.403,310.258,868.306C285.649,879.208,285.649,887.542,285.649,895.875C285.649,904.208,285.649,912.542,285.649,927.375C285.649,942.208,285.649,963.542,285.649,984.875C285.649,1006.208,285.649,1027.542,285.649,1046.875C285.649,1066.208,285.649,1083.542,285.649,1100.875C285.649,1118.208,285.649,1135.542,285.649,1164.883C285.649,1194.225,285.649,1235.574,285.649,1278.924C285.649,1322.273,285.649,1367.623,285.649,1402.964C285.649,1438.306,285.649,1463.639,285.649,1486.972C285.649,1510.306,285.649,1531.639,285.649,1546.472C285.649,1561.306,285.649,1569.639,285.649,1584.472C285.649,1599.306,285.649,1620.639,285.649,1641.972C285.649,1663.306,285.649,1684.639,285.649,1699.472C285.649,1714.306,285.649,1722.639,285.649,1730.306C285.649,1737.972,285.649,1744.972,285.649,1748.472L285.649,1751.972"/><path marker-end="url(#render_svg_3172_flowchart-v2-pointEnd)" style="" class="edge-thickness-normal edge-pattern-solid edge-thickness-normal edge-pattern-solid flowchart-link" id="L_MemoryPersist_SlowEvolvePrep_0" d="M693.299,831.199L716.965,837.811C740.632,844.424,787.965,857.65,811.632,868.429C835.299,879.208,835.299,887.542,835.299,895.875C835.299,904.208,835.299,912.542,835.299,920.208C835.299,927.875,835.299,934.875,835.299,938.375L835.299,941.875"/><path marker-end="url(#render_svg_3172_flowchart-v2-pointEnd)" style="" class="edge-thickness-normal edge-pattern-solid edge-thickness-normal edge-pattern-solid flowchart-link" id="L_FastEvolve_DiagnosePrompt_0" d="M285.649,1833.972L285.649,1838.139C285.649,1842.306,285.649,1850.639,285.649,1858.306C285.649,1865.972,285.649,1872.972,285.649,1876.472L285.649,1879.972"/><path marker-end="url(#render_svg_3172_flowchart-v2-pointEnd)" style="" class="edge-thickness-normal edge-pattern-solid edge-thickness-normal edge-pattern-solid flowchart-link" id="L_DiagnosePrompt_FreezeValFast_0" d="M285.649,1961.972L285.649,1966.139C285.649,1970.306,285.649,1978.639,285.649,1986.306C285.649,1993.972,285.649,2000.972,285.649,2004.472L285.649,2007.972"/><path marker-end="url(#render_svg_3172_flowchart-v2-pointEnd)" style="" class="edge-thickness-normal edge-pattern-solid edge-thickness-normal edge-pattern-solid flowchart-link" id="L_FreezeValFast_ComparePrompt_0" d="M285.649,2089.972L285.649,2094.139C285.649,2098.306,285.649,2106.639,285.649,2122.299C285.649,2137.958,285.649,2160.944,285.649,2172.438L285.649,2183.931"/><path marker-end="url(#render_svg_3172_flowchart-v2-pointEnd)" style="" class="edge-thickness-normal edge-pattern-solid edge-thickness-normal edge-pattern-solid flowchart-link" id="L_ComparePrompt_PromptPass_0" d="M285.649,2265.931L285.649,2280.09C285.649,2294.25,285.649,2322.569,285.724,2342.313C285.798,2362.056,285.947,2373.222,286.022,2378.806L286.096,2384.389"/><path marker-end="url(#render_svg_3172_flowchart-v2-pointEnd)" style="" class="edge-thickness-normal edge-pattern-solid edge-thickness-normal edge-pattern-solid flowchart-link" id="L_PromptPass_ReplacePrompt_0" d="M244.3,2520.456L232.025,2533.515C219.75,2546.573,195.2,2572.689,182.924,2591.247C170.649,2609.806,170.649,2620.806,170.649,2626.306L170.649,2631.806"/><path marker-end="url(#render_svg_3172_flowchart-v2-pointEnd)" style="" class="edge-thickness-normal edge-pattern-solid edge-thickness-normal edge-pattern-solid flowchart-link" id="L_PromptPass_DiscardPrompt_0" d="M329.46,2518.995L342.658,2532.297C355.856,2545.599,382.253,2572.202,395.451,2591.004C408.649,2609.806,408.649,2620.806,408.649,2626.306L408.649,2631.806"/><path marker-end="url(#render_svg_3172_flowchart-v2-pointEnd)" style="" class="edge-thickness-normal edge-pattern-solid edge-thickness-normal edge-pattern-solid flowchart-link" id="L_SlowEvolvePrep_SaveBuffer_0" d="M835.299,1023.875L835.299,1028.042C835.299,1032.208,835.299,1040.542,835.299,1048.208C835.299,1055.875,835.299,1062.875,835.299,1066.375L835.299,1069.875"/><path marker-end="url(#render_svg_3172_flowchart-v2-pointEnd)" style="" class="edge-thickness-normal edge-pattern-solid edge-thickness-normal edge-pattern-solid flowchart-link" id="L_SaveBuffer_BufferFull_0" d="M835.299,1127.875L835.299,1132.042C835.299,1136.208,835.299,1144.542,835.369,1152.292C835.439,1160.042,835.58,1167.209,835.65,1170.792L835.72,1174.376"/><path marker-end="url(#render_svg_3172_flowchart-v2-pointEnd)" style="" class="edge-thickness-normal edge-pattern-solid edge-thickness-normal edge-pattern-solid flowchart-link" id="L_BufferFull_WaitNext_0" d="M890.745,1321.526L909.754,1336.767C928.763,1352.008,966.781,1382.49,1056.299,1408.177C1145.816,1433.863,1286.834,1454.754,1357.343,1465.2L1427.852,1475.646"/><path marker-end="url(#render_svg_3172_flowchart-v2-pointEnd)" style="" class="edge-thickness-normal edge-pattern-solid edge-thickness-normal edge-pattern-solid flowchart-link" id="L_WaitNext_UserInput_0" d="M1517.809,1461.972L1517.809,1453.806C1517.809,1445.639,1517.809,1429.306,1517.809,1398.464C1517.809,1367.623,1517.809,1322.273,1517.809,1278.924C1517.809,1235.574,1517.809,1194.225,1517.809,1164.883C1517.809,1135.542,1517.809,1118.208,1517.809,1100.875C1517.809,1083.542,1517.809,1066.208,1517.809,1046.875C1517.809,1027.542,1517.809,1006.208,1517.809,984.875C1517.809,963.542,1517.809,942.208,1517.809,927.375C1517.809,912.542,1517.809,904.208,1517.809,895.875C1517.809,887.542,1517.809,879.208,1517.809,862.375C1517.809,845.542,1517.809,820.208,1517.809,792.875C1517.809,765.542,1517.809,736.208,1517.809,699.719C1517.809,663.229,1517.809,619.583,1517.809,577.938C1517.809,536.292,1517.809,496.646,1517.809,468.156C1517.809,439.667,1517.809,422.333,1517.809,403C1517.809,383.667,1517.809,362.333,1517.809,339C1517.809,315.667,1517.809,290.333,1517.809,267C1517.809,243.667,1517.809,222.333,1512.077,207.868C1506.345,193.403,1494.882,185.806,1489.15,182.008L1483.418,178.21"/><path marker-end="url(#render_svg_3172_flowchart-v2-pointEnd)" style="" class="edge-thickness-normal edge-pattern-solid edge-thickness-normal edge-pattern-solid flowchart-link" id="L_BufferFull_FilterData_0" d="M824.225,1364.899L823.071,1372.911C821.916,1380.923,819.607,1396.948,818.453,1410.46C817.299,1423.972,817.299,1434.972,817.299,1440.472L817.299,1445.972"/><path marker-end="url(#render_svg_3172_flowchart-v2-pointEnd)" style="" class="edge-thickness-normal edge-pattern-solid edge-thickness-normal edge-pattern-solid flowchart-link" id="L_FilterData_ExportData_0" d="M817.299,1527.972L817.299,1532.139C817.299,1536.306,817.299,1544.639,817.299,1552.972C817.299,1561.306,817.299,1569.639,817.299,1577.306C817.299,1584.972,817.299,1591.972,817.299,1595.472L817.299,1598.972"/><path marker-end="url(#render_svg_3172_flowchart-v2-pointEnd)" style="" class="edge-thickness-normal edge-pattern-solid edge-thickness-normal edge-pattern-solid flowchart-link" id="L_ExportData_GRPOTrain_0" d="M817.299,1680.972L817.299,1685.139C817.299,1689.306,817.299,1697.639,817.299,1705.972C817.299,1714.306,817.299,1722.639,817.299,1730.306C817.299,1737.972,817.299,1744.972,817.299,1748.472L817.299,1751.972"/><path marker-end="url(#render_svg_3172_flowchart-v2-pointEnd)" style="" class="edge-thickness-normal edge-pattern-solid edge-thickness-normal edge-pattern-solid flowchart-link" id="L_GRPOTrain_FreezeValSlow_0" d="M817.299,1833.972L817.299,1838.139C817.299,1842.306,817.299,1850.639,817.299,1858.306C817.299,1865.972,817.299,1872.972,817.299,1876.472L817.299,1879.972"/><path marker-end="url(#render_svg_3172_flowchart-v2-pointEnd)" style="" class="edge-thickness-normal edge-pattern-solid edge-thickness-normal edge-pattern-solid flowchart-link" id="L_FreezeValSlow_CompareWeight_0" d="M817.299,1961.972L817.299,1966.139C817.299,1970.306,817.299,1978.639,817.299,1988.306C817.299,1997.972,817.299,2008.972,817.299,2014.472L817.299,2019.972"/><path marker-end="url(#render_svg_3172_flowchart-v2-pointEnd)" style="" class="edge-thickness-normal edge-pattern-solid edge-thickness-normal edge-pattern-solid flowchart-link" id="L_CompareWeight_WeightPass_0" d="M817.299,2077.972L817.299,2084.139C817.299,2090.306,817.299,2102.639,817.369,2112.389C817.439,2122.139,817.58,2129.306,817.65,2132.89L817.72,2136.473"/><path marker-end="url(#render_svg_3172_flowchart-v2-pointEnd)" style="" class="edge-thickness-normal edge-pattern-solid edge-thickness-normal edge-pattern-solid flowchart-link" id="L_WeightPass_DeployWeight_0" d="M776.717,2273.308L764.981,2286.238C753.244,2299.168,729.772,2325.028,718.035,2353.452C706.299,2381.875,706.299,2412.861,706.299,2428.354L706.299,2443.847"/><path marker-end="url(#render_svg_3172_flowchart-v2-pointEnd)" style="" class="edge-thickness-normal edge-pattern-solid edge-thickness-normal edge-pattern-solid flowchart-link" id="L_WeightPass_RollbackWeight_0" d="M860.39,2271.797L873.042,2284.979C885.693,2298.161,910.996,2324.525,923.647,2353.2C936.299,2381.875,936.299,2412.861,936.299,2428.354L936.299,2443.847"/><path marker-end="url(#render_svg_3172_flowchart-v2-pointEnd)" style="" class="edge-thickness-normal edge-pattern-solid edge-thickness-normal edge-pattern-solid flowchart-link" id="L_DeployWeight_ClearBuffer_0" d="M706.299,2501.847L706.299,2518.007C706.299,2534.167,706.299,2566.486,717.676,2590.436C729.054,2614.386,751.809,2629.966,763.186,2637.756L774.564,2645.546"/><path marker-end="url(#render_svg_3172_flowchart-v2-pointEnd)" style="" class="edge-thickness-normal edge-pattern-solid edge-thickness-normal edge-pattern-solid flowchart-link" id="L_RollbackWeight_ClearBuffer_0" d="M936.299,2501.847L936.299,2518.007C936.299,2534.167,936.299,2566.486,924.073,2590.454C911.848,2614.421,887.397,2630.037,875.171,2637.845L862.946,2645.653"/><path marker-end="url(#render_svg_3172_flowchart-v2-pointEnd)" style="" class="edge-thickness-normal edge-pattern-solid edge-thickness-normal edge-pattern-solid flowchart-link" id="L_ReplacePrompt_EndNode_0" d="M170.649,2713.806L170.649,2717.972C170.649,2722.139,170.649,2730.472,170.649,2738.806C170.649,2747.139,170.649,2755.472,170.649,2763.806C170.649,2772.139,170.649,2780.472,204.265,2791.032C237.881,2801.591,305.113,2814.377,338.729,2820.769L372.345,2827.162"/><path marker-end="url(#render_svg_3172_flowchart-v2-pointEnd)" style="" class="edge-thickness-normal edge-pattern-solid edge-thickness-normal edge-pattern-solid flowchart-link" id="L_DiscardPrompt_EndNode_0" d="M408.649,2713.806L408.649,2717.972C408.649,2722.139,408.649,2730.472,408.649,2738.806C408.649,2747.139,408.649,2755.472,408.649,2763.806C408.649,2772.139,408.649,2780.472,408.334,2788.142C408.02,2795.811,407.39,2802.816,407.075,2806.319L406.76,2809.822"/><path marker-end="url(#render_svg_3172_flowchart-v2-pointEnd)" style="" class="edge-thickness-normal edge-pattern-solid edge-thickness-normal edge-pattern-solid flowchart-link" id="L_ClearBuffer_EndNode_0" d="M817.299,2701.806L817.299,2707.972C817.299,2714.139,817.299,2726.472,817.299,2736.806C817.299,2747.139,817.299,2755.472,817.299,2763.806C817.299,2772.139,817.299,2780.472,753.916,2791.474C690.533,2802.476,563.767,2816.146,500.384,2822.982L437.001,2829.817"/></g><g class="edgeLabels"><g class="edgeLabel"><g transform="translate(0, 0)" class="label"><foreignObject height="0" width="0"><div style="display: table-cell; white-space: nowrap; line-height: 1.5; max-width: 200px; text-align: center;" class="labelBkg" xmlns="http://www.w3.org/1999/xhtml"><span class="edgeLabel"></span></div></foreignObject></g></g><g class="edgeLabel"><g transform="translate(0, 0)" class="label"><foreignObject height="0" width="0"><div style="display: table-cell; white-space: nowrap; line-height: 1.5; max-width: 200px; text-align: center;" class="labelBkg" xmlns="http://www.w3.org/1999/xhtml"><span class="edgeLabel"></span></div></foreignObject></g></g><g class="edgeLabel"><g transform="translate(0, 0)" class="label"><foreignObject height="0" width="0"><div style="display: table-cell; white-space: nowrap; line-height: 1.5; max-width: 200px; text-align: center;" class="labelBkg" xmlns="http://www.w3.org/1999/xhtml"><span class="edgeLabel"></span></div></foreignObject></g></g><g class="edgeLabel"><g transform="translate(0, 0)" class="label"><foreignObject height="0" width="0"><div style="display: table-cell; white-space: nowrap; line-height: 1.5; max-width: 200px; text-align: center;" class="labelBkg" xmlns="http://www.w3.org/1999/xhtml"><span class="edgeLabel"></span></div></foreignObject></g></g><g transform="translate(1439.3402862548828, 341)" class="edgeLabel"><g transform="translate(-8, -12)" class="label"><foreignObject height="24" width="16"><div style="display: table-cell; white-space: nowrap; line-height: 1.5; max-width: 200px; text-align: center;" class="labelBkg" xmlns="http://www.w3.org/1999/xhtml"><span class="edgeLabel"><p>否</p></span></div></foreignObject></g></g><g transform="translate(1358.3298683166504, 706.875)" class="edgeLabel"><g transform="translate(-8, -12)" class="label"><foreignObject height="24" width="16"><div style="display: table-cell; white-space: nowrap; line-height: 1.5; max-width: 200px; text-align: center;" class="labelBkg" xmlns="http://www.w3.org/1999/xhtml"><span class="edgeLabel"><p>是</p></span></div></foreignObject></g></g><g class="edgeLabel"><g transform="translate(0, 0)" class="label"><foreignObject height="0" width="0"><div style="display: table-cell; white-space: nowrap; line-height: 1.5; max-width: 200px; text-align: center;" class="labelBkg" xmlns="http://www.w3.org/1999/xhtml"><span class="edgeLabel"></span></div></foreignObject></g></g><g class="edgeLabel"><g transform="translate(0, 0)" class="label"><foreignObject height="0" width="0"><div style="display: table-cell; white-space: nowrap; line-height: 1.5; max-width: 200px; text-align: center;" class="labelBkg" xmlns="http://www.w3.org/1999/xhtml"><span class="edgeLabel"></span></div></foreignObject></g></g><g class="edgeLabel"><g transform="translate(0, 0)" class="label"><foreignObject height="0" width="0"><div style="display: table-cell; white-space: nowrap; line-height: 1.5; max-width: 200px; text-align: center;" class="labelBkg" xmlns="http://www.w3.org/1999/xhtml"><span class="edgeLabel"></span></div></foreignObject></g></g><g class="edgeLabel"><g transform="translate(0, 0)" class="label"><foreignObject height="0" width="0"><div style="display: table-cell; white-space: nowrap; line-height: 1.5; max-width: 200px; text-align: center;" class="labelBkg" xmlns="http://www.w3.org/1999/xhtml"><span class="edgeLabel"></span></div></foreignObject></g></g><g class="edgeLabel"><g transform="translate(0, 0)" class="label"><foreignObject height="0" width="0"><div style="display: table-cell; white-space: nowrap; line-height: 1.5; max-width: 200px; text-align: center;" class="labelBkg" xmlns="http://www.w3.org/1999/xhtml"><span class="edgeLabel"></span></div></foreignObject></g></g><g class="edgeLabel"><g transform="translate(0, 0)" class="label"><foreignObject height="0" width="0"><div style="display: table-cell; white-space: nowrap; line-height: 1.5; max-width: 200px; text-align: center;" class="labelBkg" xmlns="http://www.w3.org/1999/xhtml"><span class="edgeLabel"></span></div></foreignObject></g></g><g transform="translate(170.64930725097656, 2598.8055419921875)" class="edgeLabel"><g transform="translate(-8, -12)" class="label"><foreignObject height="24" width="16"><div style="display: table-cell; white-space: nowrap; line-height: 1.5; max-width: 200px; text-align: center;" class="labelBkg" xmlns="http://www.w3.org/1999/xhtml"><span class="edgeLabel"><p>是</p></span></div></foreignObject></g></g><g transform="translate(408.64930725097656, 2598.8055419921875)" class="edgeLabel"><g transform="translate(-8, -12)" class="label"><foreignObject height="24" width="16"><div style="display: table-cell; white-space: nowrap; line-height: 1.5; max-width: 200px; text-align: center;" class="labelBkg" xmlns="http://www.w3.org/1999/xhtml"><span class="edgeLabel"><p>否</p></span></div></foreignObject></g></g><g class="edgeLabel"><g transform="translate(0, 0)" class="label"><foreignObject height="0" width="0"><div style="display: table-cell; white-space: nowrap; line-height: 1.5; max-width: 200px; text-align: center;" class="labelBkg" xmlns="http://www.w3.org/1999/xhtml"><span class="edgeLabel"></span></div></foreignObject></g></g><g class="edgeLabel"><g transform="translate(0, 0)" class="label"><foreignObject height="0" width="0"><div style="display: table-cell; white-space: nowrap; line-height: 1.5; max-width: 200px; text-align: center;" class="labelBkg" xmlns="http://www.w3.org/1999/xhtml"><span class="edgeLabel"></span></div></foreignObject></g></g><g transform="translate(1004.7986145019531, 1412.9722290039062)" class="edgeLabel"><g transform="translate(-8, -12)" class="label"><foreignObject height="24" width="16"><div style="display: table-cell; white-space: nowrap; line-height: 1.5; max-width: 200px; text-align: center;" class="labelBkg" xmlns="http://www.w3.org/1999/xhtml"><span class="edgeLabel"><p>否</p></span></div></foreignObject></g></g><g class="edgeLabel"><g transform="translate(0, 0)" class="label"><foreignObject height="0" width="0"><div style="display: table-cell; white-space: nowrap; line-height: 1.5; max-width: 200px; text-align: center;" class="labelBkg" xmlns="http://www.w3.org/1999/xhtml"><span class="edgeLabel"></span></div></foreignObject></g></g><g transform="translate(817.2986145019531, 1412.9722290039062)" class="edgeLabel"><g transform="translate(-8, -12)" class="label"><foreignObject height="24" width="16"><div style="display: table-cell; white-space: nowrap; line-height: 1.5; max-width: 200px; text-align: center;" class="labelBkg" xmlns="http://www.w3.org/1999/xhtml"><span class="edgeLabel"><p>是</p></span></div></foreignObject></g></g><g class="edgeLabel"><g transform="translate(0, 0)" class="label"><foreignObject height="0" width="0"><div style="display: table-cell; white-space: nowrap; line-height: 1.5; max-width: 200px; text-align: center;" class="labelBkg" xmlns="http://www.w3.org/1999/xhtml"><span class="edgeLabel"></span></div></foreignObject></g></g><g class="edgeLabel"><g transform="translate(0, 0)" class="label"><foreignObject height="0" width="0"><div style="display: table-cell; white-space: nowrap; line-height: 1.5; max-width: 200px; text-align: center;" class="labelBkg" xmlns="http://www.w3.org/1999/xhtml"><span class="edgeLabel"></span></div></foreignObject></g></g><g class="edgeLabel"><g transform="translate(0, 0)" class="label"><foreignObject height="0" width="0"><div style="display: table-cell; white-space: nowrap; line-height: 1.5; max-width: 200px; text-align: center;" class="labelBkg" xmlns="http://www.w3.org/1999/xhtml"><span class="edgeLabel"></span></div></foreignObject></g></g><g class="edgeLabel"><g transform="translate(0, 0)" class="label"><foreignObject height="0" width="0"><div style="display: table-cell; white-space: nowrap; line-height: 1.5; max-width: 200px; text-align: center;" class="labelBkg" xmlns="http://www.w3.org/1999/xhtml"><span class="edgeLabel"></span></div></foreignObject></g></g><g class="edgeLabel"><g transform="translate(0, 0)" class="label"><foreignObject height="0" width="0"><div style="display: table-cell; white-space: nowrap; line-height: 1.5; max-width: 200px; text-align: center;" class="labelBkg" xmlns="http://www.w3.org/1999/xhtml"><span class="edgeLabel"></span></div></foreignObject></g></g><g transform="translate(706.2986145019531, 2350.888885498047)" class="edgeLabel"><g transform="translate(-8, -12)" class="label"><foreignObject height="24" width="16"><div style="display: table-cell; white-space: nowrap; line-height: 1.5; max-width: 200px; text-align: center;" class="labelBkg" xmlns="http://www.w3.org/1999/xhtml"><span class="edgeLabel"><p>是</p></span></div></foreignObject></g></g><g transform="translate(936.2986145019531, 2350.888885498047)" class="edgeLabel"><g transform="translate(-8, -12)" class="label"><foreignObject height="24" width="16"><div style="display: table-cell; white-space: nowrap; line-height: 1.5; max-width: 200px; text-align: center;" class="labelBkg" xmlns="http://www.w3.org/1999/xhtml"><span class="edgeLabel"><p>否</p></span></div></foreignObject></g></g><g class="edgeLabel"><g transform="translate(0, 0)" class="label"><foreignObject height="0" width="0"><div style="display: table-cell; white-space: nowrap; line-height: 1.5; max-width: 200px; text-align: center;" class="labelBkg" xmlns="http://www.w3.org/1999/xhtml"><span class="edgeLabel"></span></div></foreignObject></g></g><g class="edgeLabel"><g transform="translate(0, 0)" class="label"><foreignObject height="0" width="0"><div style="display: table-cell; white-space: nowrap; line-height: 1.5; max-width: 200px; text-align: center;" class="labelBkg" xmlns="http://www.w3.org/1999/xhtml"><span class="edgeLabel"></span></div></foreignObject></g></g><g class="edgeLabel"><g transform="translate(0, 0)" class="label"><foreignObject height="0" width="0"><div style="display: table-cell; white-space: nowrap; line-height: 1.5; max-width: 200px; text-align: center;" class="labelBkg" xmlns="http://www.w3.org/1999/xhtml"><span class="edgeLabel"></span></div></foreignObject></g></g><g class="edgeLabel"><g transform="translate(0, 0)" class="label"><foreignObject height="0" width="0"><div style="display: table-cell; white-space: nowrap; line-height: 1.5; max-width: 200px; text-align: center;" class="labelBkg" xmlns="http://www.w3.org/1999/xhtml"><span class="edgeLabel"></span></div></foreignObject></g></g><g class="edgeLabel"><g transform="translate(0, 0)" class="label"><foreignObject height="0" width="0"><div style="display: table-cell; white-space: nowrap; line-height: 1.5; max-width: 200px; text-align: center;" class="labelBkg" xmlns="http://www.w3.org/1999/xhtml"><span class="edgeLabel"></span></div></foreignObject></g></g></g><g class="nodes"><g transform="translate(1439.3402862548828, 52.5)" id="flowchart-Start-0" class="node default"><rect height="39" width="56.75" y="-19.5" x="-28.375" ry="19.5" rx="19.5" style="" class="basic label-container"/><g transform="translate(-16, -12)" style="" class="label"><rect/><foreignObject height="24" width="32"><div style="display: table-cell; white-space: nowrap; line-height: 1.5; max-width: 200px; text-align: center;" xmlns="http://www.w3.org/1999/xhtml"><span class="nodeLabel"><p>开始</p></span></div></foreignObject></g></g><g transform="translate(1439.3402862548828, 149)" id="flowchart-UserInput-1" class="node default"><rect height="54" width="188" y="-27" x="-94" style="" class="basic label-container"/><g transform="translate(-64, -12)" style="" class="label"><rect/><foreignObject height="24" width="128"><div style="display: table-cell; white-space: nowrap; line-height: 1.5; max-width: 200px; text-align: center;" xmlns="http://www.w3.org/1999/xhtml"><span class="nodeLabel"><p>接收用户输入指令</p></span></div></foreignObject></g></g><g transform="translate(1285.319450378418, 265)" id="flowchart-StudentExec-2" class="node default"><rect height="78" width="238.0416717529297" y="-39" x="-119.02083587646484" style="" class="basic label-container"/><g transform="translate(-89.02083587646484, -24)" style="" class="label"><rect/><foreignObject height="48" width="178.0416717529297"><div style="display: table-cell; white-space: nowrap; line-height: 1.5; max-width: 200px; text-align: center;" xmlns="http://www.w3.org/1999/xhtml"><span class="nodeLabel"><p>学生模型执行推理<br />内存上下文 + 向量库检索</p></span></div></foreignObject></g></g><g transform="translate(1285.319450378418, 405)" id="flowchart-ReturnResult-3" class="node default"><rect height="54" width="204" y="-27" x="-102" style="" class="basic label-container"/><g transform="translate(-72, -12)" style="" class="label"><rect/><foreignObject height="24" width="144"><div style="display: table-cell; white-space: nowrap; line-height: 1.5; max-width: 200px; text-align: center;" xmlns="http://www.w3.org/1999/xhtml"><span class="nodeLabel"><p>向用户返回执行结果</p></span></div></foreignObject></g></g><g transform="translate(1358.3298683166504, 575.9375)" id="flowchart-SessionEnd-4" class="node default"><polygon transform="translate(-93.9375,93.9375)" class="label-container" points="93.9375,0 187.875,-93.9375 93.9375,-187.875 0,-93.9375"/><g transform="translate(-66.9375, -12)" style="" class="label"><rect/><foreignObject height="24" width="133.875"><div style="display: table-cell; white-space: nowrap; line-height: 1.5; max-width: 200px; text-align: center;" xmlns="http://www.w3.org/1999/xhtml"><span class="nodeLabel"><p>当前会话是否结束?</p></span></div></foreignObject></g></g><g transform="translate(1517.8090362548828, 1488.9722290039062)" id="flowchart-WaitNext-5" class="node default"><rect height="54" width="172" y="-27" x="-86" style="" class="basic label-container"/><g transform="translate(-56, -12)" style="" class="label"><rect/><foreignObject height="24" width="112"><div style="display: table-cell; white-space: nowrap; line-height: 1.5; max-width: 200px; text-align: center;" xmlns="http://www.w3.org/1999/xhtml"><span class="nodeLabel"><p>等待下一次会话</p></span></div></foreignObject></g></g><g transform="translate(563.2986145019531, 794.875)" id="flowchart-MemoryPersist-6" class="node default"><rect height="102" width="260" y="-51" x="-130" style="fill:#F0F0F0 !important;stroke:#8C8C8C !important;stroke-width:2px !important" class="basic label-container"/><g transform="translate(-100, -36)" style="" class="label"><rect/><foreignObject height="72" width="200"><div style="display: table; white-space: break-spaces; line-height: 1.5; max-width: 200px; text-align: center; width: 200px;" xmlns="http://www.w3.org/1999/xhtml"><span class="nodeLabel"><p>会话数据持久化<br />内存清空 / 向量库存摘要 / SQLite全量落盘</p></span></div></foreignObject></g></g><g transform="translate(285.64930725097656, 1794.9722290039062)" id="flowchart-FastEvolve-7" class="node default"><rect height="78" width="156" y="-39" x="-78" style="" class="basic label-container"/><g transform="translate(-48, -24)" style="" class="label"><rect/><foreignObject height="48" width="96"><div style="display: table-cell; white-space: nowrap; line-height: 1.5; max-width: 200px; text-align: center;" xmlns="http://www.w3.org/1999/xhtml"><span class="nodeLabel"><p>触发快进化<br />教师模型介入</p></span></div></foreignObject></g></g><g transform="translate(285.64930725097656, 1922.9722290039062)" id="flowchart-DiagnosePrompt-8" class="node default"><rect height="78" width="220" y="-39" x="-110" style="" class="basic label-container"/><g transform="translate(-80, -24)" style="" class="label"><rect/><foreignObject height="48" width="160"><div style="display: table-cell; white-space: nowrap; line-height: 1.5; max-width: 200px; text-align: center;" xmlns="http://www.w3.org/1999/xhtml"><span class="nodeLabel"><p>诊断会话表现<br />生成优化版系统提示词</p></span></div></foreignObject></g></g><g transform="translate(285.64930725097656, 2050.9722290039062)" id="flowchart-FreezeValFast-9" class="node default"><rect height="78" width="226.59722900390625" y="-39" x="-113.29861450195312" style="" class="basic label-container"/><g transform="translate(-83.29861450195312, -24)" style="" class="label"><rect/><foreignObject height="48" width="166.59722900390625"><div style="display: table-cell; white-space: nowrap; line-height: 1.5; max-width: 200px; text-align: center;" xmlns="http://www.w3.org/1999/xhtml"><span class="nodeLabel"><p>冻结统一验证集<br />次新M条 + 历史随机K条</p></span></div></foreignObject></g></g><g transform="translate(285.64930725097656, 2226.9305572509766)" id="flowchart-ComparePrompt-10" class="node default"><rect height="78" width="224.22222900390625" y="-39" x="-112.11111450195312" style="" class="basic label-container"/><g transform="translate(-82.11111450195312, -24)" style="" class="label"><rect/><foreignObject height="48" width="164.22222900390625"><div style="display: table-cell; white-space: nowrap; line-height: 1.5; max-width: 200px; text-align: center;" xmlns="http://www.w3.org/1999/xhtml"><span class="nodeLabel"><p>同集对比新旧提示词<br />含min_margin阈值校验</p></span></div></foreignObject></g></g><g transform="translate(285.64930725097656, 2474.847213745117)" id="flowchart-PromptPass-11" class="node default"><polygon transform="translate(-86.95833206176758,86.95833206176758)" class="label-container" points="86.95833206176758,0 173.91666412353516,-86.95833206176758 86.95833206176758,-173.91666412353516 0,-86.95833206176758"/><g transform="translate(-59.95833206176758, -12)" style="" class="label"><rect/><foreignObject height="24" width="119.91666412353516"><div style="display: table-cell; white-space: nowrap; line-height: 1.5; max-width: 200px; text-align: center;" xmlns="http://www.w3.org/1999/xhtml"><span class="nodeLabel"><p>新版得分 ≥ 旧版?</p></span></div></foreignObject></g></g><g transform="translate(170.64930725097656, 2674.8055419921875)" id="flowchart-ReplacePrompt-12" class="node default"><rect height="78" width="204" y="-39" x="-102" style="" class="basic label-container"/><g transform="translate(-72, -24)" style="" class="label"><rect/><foreignObject height="48" width="144"><div style="display: table-cell; white-space: nowrap; line-height: 1.5; max-width: 200px; text-align: center;" xmlns="http://www.w3.org/1999/xhtml"><span class="nodeLabel"><p>替换现役系统提示词<br />记录版本迭代信息</p></span></div></foreignObject></g></g><g transform="translate(408.64930725097656, 2674.8055419921875)" id="flowchart-DiscardPrompt-13" class="node default"><rect height="78" width="172" y="-39" x="-86" style="" class="basic label-container"/><g transform="translate(-56, -24)" style="" class="label"><rect/><foreignObject height="48" width="112"><div style="display: table-cell; white-space: nowrap; line-height: 1.5; max-width: 200px; text-align: center;" xmlns="http://www.w3.org/1999/xhtml"><span class="nodeLabel"><p>丢弃新版提示词<br />留存失败原因</p></span></div></foreignObject></g></g><g transform="translate(835.2986145019531, 984.875)" id="flowchart-SlowEvolvePrep-14" class="node default"><rect height="78" width="220" y="-39" x="-110" style="" class="basic label-container"/><g transform="translate(-80, -24)" style="" class="label"><rect/><foreignObject height="48" width="160"><div style="display: table-cell; white-space: nowrap; line-height: 1.5; max-width: 200px; text-align: center;" xmlns="http://www.w3.org/1999/xhtml"><span class="nodeLabel"><p>慢进化素材生成<br />教师为会话打综合奖励</p></span></div></foreignObject></g></g><g transform="translate(835.2986145019531, 1100.875)" id="flowchart-SaveBuffer-15" class="node default"><rect height="54" width="172" y="-27" x="-86" style="" class="basic label-container"/><g transform="translate(-56, -12)" style="" class="label"><rect/><foreignObject height="24" width="112"><div style="display: table-cell; white-space: nowrap; line-height: 1.5; max-width: 200px; text-align: center;" xmlns="http://www.w3.org/1999/xhtml"><span class="nodeLabel"><p>写入训练缓冲区</p></span></div></foreignObject></g></g><g transform="translate(835.2986145019531, 1276.9236145019531)" id="flowchart-BufferFull-16" class="node default"><polygon transform="translate(-99.04861450195312,99.04861450195312)" class="label-container" points="99.04861450195312,0 198.09722900390625,-99.04861450195312 99.04861450195312,-198.09722900390625 0,-99.04861450195312"/><g transform="translate(-72.04861450195312, -12)" style="" class="label"><rect/><foreignObject height="24" width="144.09722900390625"><div style="display: table-cell; white-space: nowrap; line-height: 1.5; max-width: 200px; text-align: center;" xmlns="http://www.w3.org/1999/xhtml"><span class="nodeLabel"><p>训练样本累积达N条?</p></span></div></foreignObject></g></g><g transform="translate(817.2986145019531, 1488.9722290039062)" id="flowchart-FilterData-17" class="node default"><rect height="78" width="212.4027862548828" y="-39" x="-106.2013931274414" style="" class="basic label-container"/><g transform="translate(-76.2013931274414, -24)" style="" class="label"><rect/><foreignObject height="48" width="152.4027862548828"><div style="display: table-cell; white-space: nowrap; line-height: 1.5; max-width: 200px; text-align: center;" xmlns="http://www.w3.org/1999/xhtml"><span class="nodeLabel"><p>数据质量过滤<br />剔除低质/不完整样本</p></span></div></foreignObject></g></g><g transform="translate(817.2986145019531, 1641.9722290039062)" id="flowchart-ExportData-18" class="node default"><rect height="78" width="256.68055725097656" y="-39" x="-128.34027862548828" style="" class="basic label-container"/><g transform="translate(-98.34027862548828, -24)" style="" class="label"><rect/><foreignObject height="48" width="196.68055725097656"><div style="display: table-cell; white-space: nowrap; line-height: 1.5; max-width: 200px; text-align: center;" xmlns="http://www.w3.org/1999/xhtml"><span class="nodeLabel"><p>导出VERL兼容训练数据<br />N条最新样本，H条历史样本</p></span></div></foreignObject></g></g><g transform="translate(817.2986145019531, 1794.9722290039062)" id="flowchart-GRPOTrain-19" class="node default"><rect height="78" width="260" y="-39" x="-130" style="" class="basic label-container"/><g transform="translate(-100, -24)" style="" class="label"><rect/><foreignObject height="48" width="200"><div style="display: table; white-space: break-spaces; line-height: 1.5; max-width: 200px; text-align: center; width: 200px;" xmlns="http://www.w3.org/1999/xhtml"><span class="nodeLabel"><p>调用VERL执行GRPO与OPD权重微调</p></span></div></foreignObject></g></g><g transform="translate(817.2986145019531, 1922.9722290039062)" id="flowchart-FreezeValSlow-20" class="node default"><rect height="78" width="226.59722900390625" y="-39" x="-113.29861450195312" style="" class="basic label-container"/><g transform="translate(-83.29861450195312, -24)" style="" class="label"><rect/><foreignObject height="48" width="166.59722900390625"><div style="display: table-cell; white-space: nowrap; line-height: 1.5; max-width: 200px; text-align: center;" xmlns="http://www.w3.org/1999/xhtml"><span class="nodeLabel"><p>冻结统一验证集<br />次新M条 + 历史随机K条</p></span></div></foreignObject></g></g><g transform="translate(817.2986145019531, 2050.9722290039062)" id="flowchart-CompareWeight-21" class="node default"><rect height="54" width="188" y="-27" x="-94" style="" class="basic label-container"/><g transform="translate(-64, -12)" style="" class="label"><rect/><foreignObject height="24" width="128"><div style="display: table-cell; white-space: nowrap; line-height: 1.5; max-width: 200px; text-align: center;" xmlns="http://www.w3.org/1999/xhtml"><span class="nodeLabel"><p>同集对比新旧权重</p></span></div></foreignObject></g></g><g transform="translate(817.2986145019531, 2226.9305572509766)" id="flowchart-WeightPass-22" class="node default"><polygon transform="translate(-86.95833206176758,86.95833206176758)" class="label-container" points="86.95833206176758,0 173.91666412353516,-86.95833206176758 86.95833206176758,-173.91666412353516 0,-86.95833206176758"/><g transform="translate(-59.95833206176758, -12)" style="" class="label"><rect/><foreignObject height="24" width="119.91666412353516"><div style="display: table-cell; white-space: nowrap; line-height: 1.5; max-width: 200px; text-align: center;" xmlns="http://www.w3.org/1999/xhtml"><span class="nodeLabel"><p>新版得分 ≥ 旧版?</p></span></div></foreignObject></g></g><g transform="translate(706.2986145019531, 2474.847213745117)" id="flowchart-DeployWeight-23" class="node default"><rect height="54" width="172" y="-27" x="-86" style="" class="basic label-container"/><g transform="translate(-56, -12)" style="" class="label"><rect/><foreignObject height="24" width="112"><div style="display: table-cell; white-space: nowrap; line-height: 1.5; max-width: 200px; text-align: center;" xmlns="http://www.w3.org/1999/xhtml"><span class="nodeLabel"><p>部署新权重上线</p></span></div></foreignObject></g></g><g transform="translate(936.2986145019531, 2474.847213745117)" id="flowchart-RollbackWeight-24" class="node default"><rect height="54" width="188" y="-27" x="-94" style="" class="basic label-container"/><g transform="translate(-64, -12)" style="" class="label"><rect/><foreignObject height="24" width="128"><div style="display: table-cell; white-space: nowrap; line-height: 1.5; max-width: 200px; text-align: center;" xmlns="http://www.w3.org/1999/xhtml"><span class="nodeLabel"><p>回滚至原权重版本</p></span></div></foreignObject></g></g><g transform="translate(817.2986145019531, 2674.8055419921875)" id="flowchart-ClearBuffer-25" class="node default"><rect height="54" width="172" y="-27" x="-86" style="" class="basic label-container"/><g transform="translate(-56, -12)" style="" class="label"><rect/><foreignObject height="24" width="112"><div style="display: table-cell; white-space: nowrap; line-height: 1.5; max-width: 200px; text-align: center;" xmlns="http://www.w3.org/1999/xhtml"><span class="nodeLabel"><p>清空训练缓冲区</p></span></div></foreignObject></g></g><g transform="translate(404.64930725097656, 2833.3055419921875)" id="flowchart-EndNode-26" class="node default"><rect height="39" width="56.75" y="-19.5" x="-28.375" ry="19.5" rx="19.5" style="" class="basic label-container"/><g transform="translate(-16, -12)" style="" class="label"><rect/><foreignObject height="24" width="32"><div style="display: table-cell; white-space: nowrap; line-height: 1.5; max-width: 200px; text-align: center;" xmlns="http://www.w3.org/1999/xhtml"><span class="nodeLabel"><p>结束</p></span></div></foreignObject></g></g></g></g></g></svg>