<svg viewBox="0 0 1126.3333740234375 400" xmlns="http://www.w3.org/2000/svg"><g><g><g><g><g><line x1="30.78125" y1="377" x2="25.78125" y2="377" style="visibility: inherit;" fill="rgb(0, 0, 0)" stroke="rgb(204, 204, 204)" stroke-width="1px"></line><line x1="30.78125" y1="329.875" x2="25.78125" y2="329.875" style="visibility: inherit;" fill="rgb(0, 0, 0)" stroke="rgb(204, 204, 204)" stroke-width="1px"></line><line x1="30.78125" y1="282.75" x2="25.78125" y2="282.75" style="visibility: inherit;" fill="rgb(0, 0, 0)" stroke="rgb(204, 204, 204)" stroke-width="1px"></line><line x1="30.78125" y1="235.625" x2="25.78125" y2="235.625" style="visibility: inherit;" fill="rgb(0, 0, 0)" stroke="rgb(204, 204, 204)" stroke-width="1px"></line><line x1="30.78125" y1="188.5" x2="25.78125" y2="188.5" style="visibility: inherit;" fill="rgb(0, 0, 0)" stroke="rgb(204, 204, 204)" stroke-width="1px"></line><line x1="30.78125" y1="141.375" x2="25.78125" y2="141.375" style="visibility: inherit;" fill="rgb(0, 0, 0)" stroke="rgb(204, 204, 204)" stroke-width="1px"></line><line x1="30.78125" y1="94.25" x2="25.78125" y2="94.25" style="visibility: inherit;" fill="rgb(0, 0, 0)" stroke="rgb(204, 204, 204)" stroke-width="1px"></line><line x1="30.78125" y1="47.125" x2="25.78125" y2="47.125" style="visibility: inherit;" fill="rgb(0, 0, 0)" stroke="rgb(204, 204, 204)" stroke-width="1px"></line><line x1="30.78125" y1="0" x2="25.78125" y2="0" style="visibility: inherit;" fill="rgb(0, 0, 0)" stroke="rgb(204, 204, 204)" stroke-width="1px"></line></g><g transform="translate(20.78125, 0)"><text x="0" y="377" dx="0em" dy="0.3em" style="text-anchor: end; visibility: hidden; font-family: Roboto, sans-serif; font-size: 12px; font-weight: 200;" fill="rgb(33, 33, 33)" stroke="none" stroke-width="1px">0</text><text x="0" y="329.875" dx="0em" dy="0.3em" style="text-anchor: end; visibility: inherit; font-family: Roboto, sans-serif; font-size: 12px; font-weight: 200;" fill="rgb(33, 33, 33)" stroke="none" stroke-width="1px">2</text><text x="0" y="282.75" dx="0em" dy="0.3em" style="text-anchor: end; visibility: inherit; font-family: Roboto, sans-serif; font-size: 12px; font-weight: 200;" fill="rgb(33, 33, 33)" stroke="none" stroke-width="1px">4</text><text x="0" y="235.625" dx="0em" dy="0.3em" style="text-anchor: end; visibility: inherit; font-family: Roboto, sans-serif; font-size: 12px; font-weight: 200;" fill="rgb(33, 33, 33)" stroke="none" stroke-width="1px">6</text><text x="0" y="188.5" dx="0em" dy="0.3em" style="text-anchor: end; visibility: inherit; font-family: Roboto, sans-serif; font-size: 12px; font-weight: 200;" fill="rgb(33, 33, 33)" stroke="none" stroke-width="1px">8</text><text x="0" y="141.375" dx="0em" dy="0.3em" style="text-anchor: end; visibility: inherit; font-family: Roboto, sans-serif; font-size: 12px; font-weight: 200;" fill="rgb(33, 33, 33)" stroke="none" stroke-width="1px">10</text><text x="0" y="94.25" dx="0em" dy="0.3em" style="text-anchor: end; visibility: inherit; font-family: Roboto, sans-serif; font-size: 12px; font-weight: 200;" fill="rgb(33, 33, 33)" stroke="none" stroke-width="1px">12</text><text x="0" y="47.125" dx="0em" dy="0.3em" style="text-anchor: end; visibility: inherit; font-family: Roboto, sans-serif; font-size: 12px; font-weight: 200;" fill="rgb(33, 33, 33)" stroke="none" stroke-width="1px">14</text><text x="0" y="0" dx="0em" dy="0.3em" style="text-anchor: end; visibility: hidden; font-family: Roboto, sans-serif; font-size: 12px; font-weight: 200;" fill="rgb(33, 33, 33)" stroke="none" stroke-width="1px">16</text></g><line x1="30.78125" y1="0" x2="30.78125" y2="377" fill="rgb(0, 0, 0)" stroke="rgb(204, 204, 204)" stroke-width="1px"></line></g></g><g transform="translate(30, 0)" clip-path="url(#clip_0)"><clipPath id="clip_0"><rect width="1095" height="377"></rect></clipPath><g><g><g><line x1="0" y1="0" x2="0" y2="377" fill="rgb(0, 0, 0)" stroke="rgb(66, 66, 66)" stroke-width="1px" opacity="0.25"></line><line x1="78.25348214285714" y1="0" x2="78.25348214285714" y2="377" fill="rgb(0, 0, 0)" stroke="rgb(66, 66, 66)" stroke-width="1px" opacity="0.25"></line><line x1="156.50696428571428" y1="0" x2="156.50696428571428" y2="377" fill="rgb(0, 0, 0)" stroke="rgb(66, 66, 66)" stroke-width="1px" opacity="0.25"></line><line x1="234.7604464285714" y1="0" x2="234.7604464285714" y2="377" fill="rgb(0, 0, 0)" stroke="rgb(66, 66, 66)" stroke-width="1px" opacity="0.25"></line><line x1="313.01392857142855" y1="0" x2="313.01392857142855" y2="377" fill="rgb(0, 0, 0)" stroke="rgb(66, 66, 66)" stroke-width="1px" opacity="0.25"></line><line x1="391.2674107142857" y1="0" x2="391.2674107142857" y2="377" fill="rgb(0, 0, 0)" stroke="rgb(66, 66, 66)" stroke-width="1px" opacity="0.25"></line><line x1="469.5208928571428" y1="0" x2="469.5208928571428" y2="377" fill="rgb(0, 0, 0)" stroke="rgb(66, 66, 66)" stroke-width="1px" opacity="0.25"></line><line x1="547.774375" y1="0" x2="547.774375" y2="377" fill="rgb(0, 0, 0)" stroke="rgb(66, 66, 66)" stroke-width="1px" opacity="0.25"></line><line x1="626.0278571428571" y1="0" x2="626.0278571428571" y2="377" fill="rgb(0, 0, 0)" stroke="rgb(66, 66, 66)" stroke-width="1px" opacity="0.25"></line><line x1="704.2813392857142" y1="0" x2="704.2813392857142" y2="377" fill="rgb(0, 0, 0)" stroke="rgb(66, 66, 66)" stroke-width="1px" opacity="0.25"></line><line x1="782.5348214285714" y1="0" x2="782.5348214285714" y2="377" fill="rgb(0, 0, 0)" stroke="rgb(66, 66, 66)" stroke-width="1px" opacity="0.25"></line><line x1="860.7883035714285" y1="0" x2="860.7883035714285" y2="377" fill="rgb(0, 0, 0)" stroke="rgb(66, 66, 66)" stroke-width="1px" opacity="0.25"></line><line x1="939.0417857142857" y1="0" x2="939.0417857142857" y2="377" fill="rgb(0, 0, 0)" stroke="rgb(66, 66, 66)" stroke-width="1px" opacity="0.25"></line><line x1="1017.2952678571428" y1="0" x2="1017.2952678571428" y2="377" fill="rgb(0, 0, 0)" stroke="rgb(66, 66, 66)" stroke-width="1px" opacity="0.25"></line><line x1="1095.54875" y1="0" x2="1095.54875" y2="377" fill="rgb(0, 0, 0)" stroke="rgb(66, 66, 66)" stroke-width="1px" opacity="0.25"></line></g><g><line x1="0" y1="377" x2="1095.54875" y2="377" fill="rgb(0, 0, 0)" stroke="rgb(66, 66, 66)" stroke-width="1px" opacity="0.25"></line><line x1="0" y1="329.875" x2="1095.54875" y2="329.875" fill="rgb(0, 0, 0)" stroke="rgb(66, 66, 66)" stroke-width="1px" opacity="0.25"></line><line x1="0" y1="282.75" x2="1095.54875" y2="282.75" fill="rgb(0, 0, 0)" stroke="rgb(66, 66, 66)" stroke-width="1px" opacity="0.25"></line><line x1="0" y1="235.625" x2="1095.54875" y2="235.625" fill="rgb(0, 0, 0)" stroke="rgb(66, 66, 66)" stroke-width="1px" opacity="0.25"></line><line x1="0" y1="188.5" x2="1095.54875" y2="188.5" fill="rgb(0, 0, 0)" stroke="rgb(66, 66, 66)" stroke-width="1px" opacity="0.25"></line><line x1="0" y1="141.375" x2="1095.54875" y2="141.375" fill="rgb(0, 0, 0)" stroke="rgb(66, 66, 66)" stroke-width="1px" opacity="0.25"></line><line x1="0" y1="94.25" x2="1095.54875" y2="94.25" fill="rgb(0, 0, 0)" stroke="rgb(66, 66, 66)" stroke-width="1px" opacity="0.25"></line><line x1="0" y1="47.125" x2="1095.54875" y2="47.125" fill="rgb(0, 0, 0)" stroke="rgb(66, 66, 66)" stroke-width="1px" opacity="0.25"></line><line x1="0" y1="0" x2="1095.54875" y2="0" fill="rgb(0, 0, 0)" stroke="rgb(66, 66, 66)" stroke-width="1px" opacity="0.25"></line></g></g></g><g><g><line x1="0" y1="377" x2="1095.54875" y2="377" fill="rgb(0, 0, 0)" stroke="rgb(153, 153, 153)" stroke-width="1.5px"></line></g></g><g><g><line x1="78.25348214285714" y1="0" x2="78.25348214285714" y2="377" fill="rgb(0, 0, 0)" stroke="rgb(153, 153, 153)" stroke-width="1.5px"></line></g></g><g><g><g><g><g><path stroke="rgb(204, 51, 17)" stroke-width="2px" d="M79.81855178571428,188.5L81.38362142857143,188.5L82.94869107142857,188.5L83.73122589285714,188.5L85.29629553571428,188.5L86.86136517857142,188.5L87.6439,188.5L88.42643482142856,188.5L89.20896964285714,188.5L89.99150446428571,188.5L90.77403928571427,188.5L91.55657410714285,188.5L92.33910892857142,188.5L93.12164375,188.5L93.90417857142856,188.5L94.68671339285713,188.5L95.46924821428571,188.5L96.25178303571428,188.5L97.03431785714284,188.5L97.81685267857142,188.5L98.59938749999999,188.5L100.16445714285713,188.5L102.51206160714285,188.5L103.29459642857142,188.5L104.07713125,188.5L104.85966607142856,188.5L105.64220089285715,188.5L107.20727053571427,188.5L109.554875,188.5L110.33740982142857,188.5L111.9024794642857,188.5L112.68501428571427,188.5L113.46754910714286,188.5L114.25008392857143,188.5L115.03261874999998,188.5L115.81515357142857,188.5L117.3802232142857,188.5L118.16275803571428,188.5L119.72782767857143,188.5L120.5103625,188.5L121.29289732142855,188.5L122.07543214285714,188.5L122.85796696428571,188.5L123.64050178571426,188.5L125.20557142857142,188.5L125.98810625,188.5L126.77064107142856,188.5L127.55317589285713,188.5L128.3357107142857,188.5L129.11824553571427,188.5L129.90078035714285,188.5L130.68331517857143,188.5L131.46585,188.5L132.24838482142857,188.5L133.03091964285713,188.5L134.59598928571427,188.5L135.37852410714285,188.5L136.16105892857144,188.5L136.94359375,188.5L138.50866339285713,188.5L139.2911982142857,188.5L140.07373303571427,188.5L140.85626785714283,188.5L142.4213375,188.5L143.20387232142858,188.5L144.76894196428572,188.5L145.5514767857143,188.5L146.33401160714283,188.5L147.1165464285714,188.5L147.89908125,188.5L148.68161607142855,188.5L150.24668571428572,188.5L151.02922053571427,188.5L151.81175535714283,188.5L152.5942901785714,188.5L154.15935982142855,188.5L154.94189464285714,188.5L156.50696428571428,188.5L157.28949910714286,188.5L158.07203392857141,188.5L158.85456874999997,188.5L159.63710357142855,188.5L160.41963839285714,188.5L161.2021732142857,188.5L161.98470803571428,188.5L163.54977767857144,188.5L164.33231249999997,188.5L165.11484732142856,188.5L165.89738214285714,188.5L167.46245178571428,188.5L168.24498660714286,188.5L169.02752142857142,188.5L169.81005624999997,188.5L170.59259107142856,188.5L171.3751258928571,188.5L172.1576607142857,188.5L172.94019553571428,188.5L173.72273035714284,188.5L175.2878,188.5L176.07033482142856,188.5L176.85286964285712,188.5L177.6354044642857,188.5L178.41793928571428,188.5L179.98300892857142,188.5L180.76554375,188.5L183.1131482142857,188.5L183.89568303571426,188.5L185.46075267857142,188.5L186.2432875,188.5L187.80835714285712,188.5L189.37342678571426,188.5L190.15596160714284,188.5L190.93849642857143,188.5L191.72103124999998,188.5L192.50356607142857,188.5L193.28610089285715,188.5L194.85117053571426,188.5L195.63370535714284,188.5L196.41624017857143,188.5L197.19877499999998,188.5L198.76384464285715,188.5L199.54637946428568,188.5L200.32891428571426,188.5L201.8939839285714,188.5L202.67651874999999,188.5L203.45905357142857,188.5L205.0241232142857,188.5L205.80665803571426,188.5L207.3717276785714,188.5L208.1542625,188.5L209.71933214285713,188.5L210.5018669642857,188.5L211.2844017857143,188.5L212.8494714285714,188.5L213.63200625,188.5L214.41454107142854,188.5L215.9796107142857,188.5L216.7621455357143,188.5L217.54468035714282,188.5L218.3272151785714,188.5L219.89228482142855,188.5L220.67481964285713,188.5L221.45735446428571,188.5L222.23988928571427,188.5L223.02242410714285,188.5L223.8049589285714,188.5L224.58749374999996,188.5L225.37002857142855,188.5L226.15256339285713,188.5L227.71763303571427,188.5L228.50016785714286,188.5L230.84777232142855,188.5L233.97791160714286,188.5L234.7604464285714,188.5L236.32551607142855,188.5L237.10805089285714,188.5L237.8905857142857,188.5L239.45565535714286,188.5L240.23819017857141,188.5L241.020725,188.5L241.80325982142855,188.5L242.5857946428571,188.5L244.93339910714283,188.5L245.71593392857142,188.5L246.49846875,188.5L247.28100357142853,188.5L248.8460732142857,188.5L249.62860803571428,188.5L250.41114285714283,188.5L251.19367767857142,188.5L251.9762125,188.5L252.75874732142856,188.5L253.5412821428571,188.5L255.10635178571425,188.5L255.88888660714284,188.5L256.6714214285714,188.5L258.23649107142853,188.5L259.01902589285714,188.5L259.8015607142857,188.5L260.58409553571425,188.5L261.36663035714287,188.5L262.1491651785714,188.5L262.9317,188.5L264.49676964285715,188.5L265.2793044642857,188.5L266.84437410714287,188.5L267.6269089285714,188.5L268.40944375,188.5L269.97451339285715,188.5L270.7570482142857,188.5L271.53958303571426,188.5L272.32211785714287,188.5L273.1046526785714,188.5L273.8871875,188.5L274.66972232142854,188.5L275.45225714285715,188.5L276.2347919642857,188.5L277.01732678571426,188.5L277.7998616071428,188.5L278.5823964285714,188.5L280.93000089285715,188.5L281.71253571428565,188.5L282.49507053571426,188.5L283.2776053571428,188.5L284.842675,188.5L285.6252098214286,188.5L286.40774464285715,188.5L287.97281428571426,188.5L289.53788392857143,188.5L291.1029535714286,188.5L291.8854883928571,188.5L292.66802321428565,188.5L293.45055803571427,188.5L294.2330928571428,188.5L295.7981625,188.5L296.5806973214286,188.5L297.3632321428571,188.5L298.14576696428566,188.5L298.92830178571427,188.5L299.7108366071428,188.5L300.49337142857144,188.5L301.27590625,188.5L305.1885803571428,188.5L306.75365,188.5L307.53618482142855,188.5L309.1012544642857,188.5L309.8837892857143,188.5L310.6663241071428,188.5L311.44885892857144,188.5L312.23139374999994,188.5L313.01392857142855,188.5L313.7964633928571,188.5L314.5789982142857,188.5L315.3615330357143,188.5L316.14406785714283,188.5L316.92660267857144,188.5L319.2742071428571,188.5L320.0567419642857,188.5L320.8392767857143,188.5L321.6218116071429,188.5L322.4043464285714,188.5L323.96941607142855,188.5L324.7519508928571,188.5L326.3170205357143,188.5L327.0995553571429,188.5L327.8820901785714,188.5L328.66462499999994,188.5L329.44715982142856,188.5L330.2296946428571,188.5L331.0122294642857,188.5L331.7947642857143,188.5L332.57729910714284,188.5L333.3598339285714,188.5L334.14236874999995,188.5L334.92490357142856,188.5L335.7074383928571,188.5L337.2725080357143,188.5L338.05504285714284,188.5L339.62011249999995,188.5L341.1851821428571,188.5L342.7502517857142,188.5L344.3153214285714,188.5L345.09785625,188.5L345.88039107142856,188.5L346.6629258928571,188.5L347.4454607142857,188.5L348.22799553571423,188.5L349.01053035714284,188.5L349.7930651785714,188.5L350.5756,188.5L351.35813482142856,188.5L352.1406696428571,188.5L352.9232044642857,188.5L353.70573928571423,188.5L354.48827410714284,188.5L355.2708089285714,188.5L356.05334375,188.5L356.83587857142857,188.5L357.61841339285706,188.5L358.4009482142857,188.5L359.18348303571423,188.5L359.96601785714284,188.5L360.7485526785714,188.5L361.5310875,188.5L362.31362232142857,188.5L363.09615714285707,188.5L363.8786919642857,188.5L364.66122678571423,188.5L365.44376160714285,188.5L366.2262964285714,188.5L367.00883125,188.5L368.5739008928571,188.5L369.3564357142857,188.5L370.92150535714285,188.5L371.7040401785714,188.5L372.486575,188.5L373.2691098214285,188.5L374.0516446428571,188.5L374.8341794642857,188.5L375.61671428571424,188.5L377.1817839285714,188.5L377.96431874999996,188.5L379.52938839285713,188.5L380.3119232142857,188.5L381.0944580357143,188.5L381.87699285714285,188.5L382.6595276785714,188.5L384.2245973214285,188.5L385.00713214285713,188.5L385.7896669642857,188.5L386.5722017857143,188.5L388.91980624999997,188.5L390.48487589285713,188.5L391.2674107142857,188.5L392.83248035714286,188.5L393.61501517857135,188.5L394.39754999999997,188.5L395.96261964285713,188.5L396.7451544642857,188.5L398.3102241071428,188.5L399.87529374999997,188.5L400.6578285714285,188.5L401.44036339285714,188.5L403.0054330357143,188.5L403.7879678571428,188.5L404.5705026785714,188.5L406.91810714285714,188.5L407.7006419642857,188.5L408.48317678571425,188.5L409.2657116071428,188.5L410.0482464285714,188.5L410.83078125,188.5L412.39585089285714,188.5L413.96092053571425,188.5L415.5259901785714,188.5L417.09105982142853,188.5L419.43866428571425,188.5L420.2211991071428,188.5L421.78626875,188.5L422.5688035714286,188.5L423.35133839285714,188.5L424.13387321428564,188.5L424.91640803571426,188.5L426.4814776785714,188.5L427.2640125,188.5L428.0465473214286,188.5L428.8290821428571,188.5L429.61161696428564,188.5L430.39415178571426,188.5L431.1766866071428,188.5L431.9592214285714,188.5L432.74175625,188.5L433.5242910714286,188.5L434.3068258928571,188.5L435.08936071428565,188.5L436.6544303571428,188.5L437.4369651785714,188.5L438.2195,188.5L439.00203482142854,188.5L439.7845696428571,188.5L440.56710446428565,188.5L441.34963928571426,188.5L442.1321741071428,188.5L442.91470892857143,188.5L443.69724375,188.5L444.47977857142854,188.5L445.2623133928571,188.5L446.0448482142857,188.5L446.82738303571426,188.5L447.6099178571428,188.5L448.39245267857143,188.5L449.17498749999993,188.5L449.95752232142854,188.5L450.7400571428571,188.5L452.30512678571426,188.5L453.0876616071428,188.5L456.2178008928571,188.5L457.78287053571427,188.5L458.5654053571429,188.5L459.3479401785714,188.5L460.13047499999993,188.5L460.91300982142855,188.5L461.6955446428571,188.5L463.26061428571427,188.5L464.0431491071429,188.5L464.8256839285714,188.5L467.1732883928571,188.5L467.9558232142857,188.5L469.5208928571428,188.5L472.6510321428571,188.5L473.4335669642857,188.5L474.2161017857143,188.5L474.9986366071428,188.5L475.7811714285714,188.5L476.56370624999994,188.5L477.34624107142855,188.5L478.1287758928571,188.5L478.9113107142857,188.5L479.6938455357142,188.5L481.2589151785714,188.5L482.04145,188.5L482.82398482142855,188.5L483.6065196428571,188.5L484.38905446428566,188.5L485.1715892857142,188.5L485.95412410714283,188.5L488.30172857142855,188.5L489.0842633928571,188.5L489.86679821428567,188.5L494.56200714285706,188.5L496.1270767857142,188.5L496.90961160714284,188.5L497.6921464285714,188.5L498.47468125,188.5L499.25721607142856,188.5L500.03975089285706,188.5L500.82228571428567,188.5L501.6048205357142,188.5L502.38735535714284,188.5L503.1698901785714,188.5L503.952425,188.5L504.7349598214285,188.5L505.5174946428571,188.5L506.30002946428567,188.5L507.0825642857142,188.5L507.86509910714284,188.5L508.6476339285714,188.5L510.2127035714285,188.5L510.9952383928571,188.5L511.7777732142857,188.5L513.3428428571428,188.5L514.9079125,188.5L515.6904473214286,188.5L516.4729821428571,188.5L517.2555169642857,188.5L518.0380517857143,188.5L519.6031214285714,188.5L520.3856562499999,188.5L521.1681910714285,188.5L521.9507258928571,188.5L522.7332607142857,188.5L523.5157955357142,188.5L524.2983303571428,188.5L525.0808651785713,188.5L525.8634,188.5L526.6459348214286,188.5L527.4284696428571,188.5L528.2110044642857,188.5L529.7760741071429,188.5L530.5586089285714,188.5L531.3411437499999,188.5L532.1236785714285,188.5L532.9062133928571,188.5L533.6887482142857,188.5L534.4712830357142,188.5L535.2538178571428,188.5L536.0363526785713,188.5L536.8188875,188.5L537.6014223214286,188.5L538.3839571428571,188.5L539.1664919642857,188.5L539.9490267857143,188.5L541.5140964285714,188.5L542.2966312499999,188.5L543.0791660714285,188.5L544.6442357142857,188.5L545.4267705357142,188.5L546.2093053571429,188.5L546.9918401785714,188.5L548.5569098214285,188.5L549.3394446428571,188.5L550.1219794642857,188.5L550.9045142857143,188.5L551.6870491071428,188.5L552.4695839285714,188.5L553.25211875,188.5L554.8171883928571,188.5L556.3822580357142,188.5L557.1647928571429,188.5L557.9473276785714,188.5L560.2949321428571,188.5L563.4250714285713,188.5L564.20760625,188.5L564.9901410714285,188.5L565.7726758928571,188.5L566.5552107142856,188.5L567.3377455357142,188.5L568.1202803571429,188.5L568.9028151785714,188.5L571.2504196428572,188.5L572.0329544642857,188.5L572.8154892857143,188.5L573.5980241071428,188.5L575.16309375,188.5L575.9456285714285,188.5L576.7281633928571,188.5L578.2932330357141,188.5L579.0757678571429,188.5L579.8583026785714,188.5L580.6408375,188.5L581.4233723214285,188.5L582.2059071428572,188.5L582.9884419642857,188.5L583.7709767857142,188.5L584.5535116071428,188.5L585.3360464285713,188.5L586.11858125,188.5L586.9011160714285,188.5L587.6836508928571,188.5L588.4661857142856,188.5L589.2487205357141,188.5L590.0312553571429,188.5L592.3788598214285,188.5L593.1613946428572,188.5L594.7264642857142,188.5L595.5089991071428,188.5L596.2915339285713,188.5L597.07406875,188.5L597.8566035714285,188.5L598.639138392857,188.5L599.4216732142856,188.5L600.2042080357143,188.5L600.9867428571429,188.5L601.7692776785714,188.5L602.5518125,188.5L604.1168821428571,188.5L604.8994169642857,188.5L605.6819517857142,188.5L606.4644866071428,188.5L607.2470214285713,188.5L608.02955625,188.5L608.8120910714285,188.5L609.594625892857,188.5L610.3771607142857,188.5L611.1596955357143,188.5L611.9422303571429,188.5L612.7247651785714,188.5L613.5073,188.5L614.2898348214285,188.5L615.0723696428571,188.5L615.8549044642857,188.5L616.6374392857142,188.5L617.4199741071428,188.5L618.2025089285714,188.5L618.9850437499999,188.5L620.550113392857,188.5L622.1151830357143,188.5L623.6802526785714,188.5L626.0278571428571,188.5L626.8103919642857,188.5L627.5929267857142,188.5L628.3754616071428,188.5L629.1579964285714,188.5L629.9405312499999,188.5L630.7230660714285,188.5L631.505600892857,188.5L632.2881357142857,188.5L633.0706705357143,188.5L633.8532053571429,188.5L634.6357401785714,188.5L635.4182749999999,188.5L637.7658794642857,188.5L638.5484142857142,188.5L639.3309491071427,188.5L640.8960187499999,188.5L641.6785535714286,188.5L642.461088392857,188.5L643.2436232142858,188.5L644.0261580357143,188.5L644.8086928571428,188.5L645.5912276785714,188.5L646.3737624999999,188.5L647.1562973214286,188.5L649.5039017857142,188.5L650.2864366071427,188.5L651.0689714285714,188.5L651.8515062499999,188.5L653.416575892857,188.5L654.1991107142858,188.5L654.9816455357143,188.5L655.7641803571428,188.5L656.5467151785714,188.5L657.3292499999999,188.5L658.1117848214286,188.5L658.8943196428571,188.5L659.6768544642856,188.5L660.4593892857142,188.5L661.2419241071427,188.5L662.0244589285714,188.5L662.80699375,188.5L663.5895285714286,188.5L665.1545982142857,188.5L665.9371330357143,188.5L666.7196678571428,188.5L667.5022026785714,188.5L668.2847374999999,188.5L669.0672723214286,188.5L669.8498071428571,188.5L670.6323419642856,188.5L672.9799464285715,188.5L673.76248125,188.5L675.3275508928571,188.5L676.1100857142857,188.5L676.8926205357143,188.5L677.6751553571428,188.5L678.4576901785714,188.5L679.2402249999999,188.5L680.8052946428571,188.5L681.5878294642856,188.5L682.3703642857142,188.5L683.1528991071428,188.5L683.9354339285715,188.5L684.71796875,188.5L685.5005035714285,188.5L686.2830383928571,188.5L687.8481080357143,188.5L688.6306428571428,188.5L689.4131776785714,188.5L690.9782473214285,188.5L691.7607821428571,188.5L692.5433169642856,188.5L693.3258517857142,188.5L694.1083866071428,188.5L694.8909214285713,188.5L696.4559910714285,188.5L697.2385258928571,188.5L698.0210607142857,188.5L698.8035955357143,188.5L699.5861303571428,188.5L700.3686651785713,188.5L701.1512,188.5L701.9337348214285,188.5L702.7162696428571,188.5L703.4988044642856,188.5L704.2813392857142,188.5L705.0638741071429,188.5L706.62894375,188.5L708.1940133928572,188.5L708.9765482142857,188.5L709.7590830357143,188.5L710.5416178571428,188.5L711.3241526785713,188.5L712.1066875,188.5L713.6717571428571,188.5L714.4542919642856,188.5L715.2368267857141,188.5L716.0193616071429,188.5L716.8018964285714,188.5L717.58443125,188.5L719.1495008928572,188.5L720.7145705357142,188.5L721.4971053571428,188.5L723.062175,188.5L723.8447098214285,188.5L724.6272446428571,188.5L726.9748491071429,188.5L727.7573839285714,188.5L728.53991875,188.5L729.3224535714285,188.5L730.1049883928572,188.5L730.8875232142857,188.5L731.6700580357142,188.5L732.4525928571428,188.5L733.2351276785713,188.5L734.0176625,188.5L734.8001973214285,188.5L735.582732142857,188.5L736.3652669642856,188.5L737.9303366071429,188.5L738.7128714285714,188.5L740.2779410714285,188.5L741.0604758928571,188.5L741.8430107142857,188.5L742.6255455357142,188.5L744.1906151785713,188.5L744.97315,188.5L745.7556848214285,188.5L746.538219642857,188.5L748.1032892857143,188.5L749.6683589285714,188.5L751.2334285714285,188.5L752.0159633928571,188.5L752.7984982142857,188.5L753.5810330357142,188.5L754.3635678571428,188.5L757.493707142857,188.5L758.2762419642856,188.5L759.0587767857143,188.5L759.8413116071429,188.5L760.6238464285714,188.5L762.1889160714286,188.5L762.9714508928571,188.5L763.7539857142857,188.5L764.5365205357142,188.5L765.3190553571428,188.5L766.1015901785714,188.5L766.8841249999999,188.5L767.6666598214285,188.5L768.449194642857,188.5L769.2317294642856,188.5L770.7967991071429,188.5L771.5793339285714,188.5L772.3618687499999,188.5L773.1444035714286,188.5L773.9269383928571,188.5L774.7094732142857,188.5L775.4920080357142,188.5L776.2745428571427,188.5L777.0570776785714,188.5L777.8396124999999,188.5L778.6221473214285,188.5L779.404682142857,188.5L780.1872169642858,188.5L780.9697517857143,188.5L781.7522866071428,188.5L782.5348214285714,188.5L783.3173562499999,188.5L784.8824258928571,188.5L785.6649607142857,188.5L786.4474955357142,188.5L787.2300303571427,188.5L788.0125651785714,188.5L788.7950999999999,188.5L789.5776348214285,188.5L790.360169642857,188.5L791.1427044642858,188.5L791.9252392857143,188.5L792.7077741071428,188.5L793.4903089285714,188.5L795.0553785714286,188.5L795.8379133928571,188.5L796.6204482142856,188.5L797.4029830357142,188.5L798.9680526785714,188.5L799.7505874999999,188.5L800.5331223214286,188.5L801.315657142857,188.5L802.0981919642857,188.5L802.8807267857143,188.5L804.4457964285714,188.5L805.2283312499999,188.5L806.7934008928571,188.5L807.5759357142856,188.5L808.3584705357142,188.5L809.1410053571428,188.5L809.9235401785714,188.5L810.7060749999999,188.5L812.271144642857,188.5L813.8362142857143,188.5L816.1838187499999,188.5L816.9663535714285,188.5L817.7488883928571,188.5L818.5314232142856,188.5L820.0964928571428,188.5L820.8790276785714,188.5L821.6615625,188.5L823.226632142857,188.5L824.0091669642857,188.5L824.7917017857143,188.5L825.5742366071428,188.5L827.13930625,188.5L827.9218410714285,188.5L828.7043758928571,188.5L829.4869107142856,188.5L830.2694455357142,188.5L831.0519803571428,188.5L831.8345151785713,188.5L832.61705,188.5L833.3995848214284,188.5L834.1821196428571,188.5L834.9646544642857,188.5L835.7471892857143,188.5L837.3122589285713,188.5L838.8773285714285,188.5L839.6598633928571,188.5L841.2249330357142,188.5L842.0074678571428,188.5L842.7900026785713,188.5L843.5725375,188.5L844.3550723214285,188.5L845.1376071428572,188.5L845.9201419642857,188.5L846.7026767857143,188.5L847.4852116071428,188.5L848.2677464285713,188.5L849.05028125,188.5L849.8328160714285,188.5L851.3978857142856,188.5L852.1804205357141,188.5L852.9629553571428,188.5L853.7454901785713,188.5L854.528025,188.5L855.3105598214285,188.5L856.8756294642857,188.5L858.4406991071428,188.5L859.2232339285713,188.5L860.7883035714285,188.5L861.5708383928571,188.5L863.1359080357141,188.5L863.9184428571428,188.5L864.7009776785713,188.5L865.4835125,188.5L867.0485821428572,188.5L867.8311169642857,188.5L868.6136517857142,188.5L870.1787214285713,188.5L870.96125625,188.5L871.7437910714285,188.5L872.526325892857,188.5L874.0913955357142,188.5L874.8739303571429,188.5L876.439,188.5L878.0040696428571,188.5L878.7866044642857,188.5L879.5691392857142,188.5L880.3516741071428,188.5L881.1342089285713,188.5L881.91674375,188.5L882.6992785714285,188.5L884.2643482142856,188.5L885.8294178571429,188.5L886.6119526785714,188.5L887.3944875,188.5L888.1770223214285,188.5L888.9595571428571,188.5L889.7420919642857,188.5L890.5246267857142,188.5L891.3071616071428,188.5L892.0896964285714,188.5L892.8722312499999,188.5L894.437300892857,188.5L895.2198357142856,188.5L896.0023705357142,188.5L896.7849053571429,188.5L899.1325098214286,188.5L899.9150446428571,188.5L900.6975794642857,188.5L901.4801142857142,188.5L902.2626491071428,188.5L903.8277187499999,188.5L904.6102535714285,188.5L905.392788392857,188.5L906.1753232142856,188.5L906.9578580357143,188.5L910.8705321428571,188.5L911.6530669642857,188.5L912.4356017857142,188.5L913.2181366071427,188.5L914.0006714285714,188.5L914.7832062499999,188.5L915.5657410714285,188.5L916.348275892857,188.5L917.1308107142858,188.5L917.9133455357143,188.5L918.6958803571428,188.5L919.4784151785714,188.5L920.2609499999999,188.5L921.0434848214286,188.5L921.8260196428571,188.5L922.6085544642857,188.5L923.3910892857142,188.5L924.1736241071427,188.5L924.9561589285714,188.5L925.7386937499999,188.5L926.5212285714285,188.5L927.303763392857,188.5L928.0862982142858,188.5L928.8688330357143,188.5L930.4339026785714,188.5L931.9989723214286,188.5L932.7815071428571,188.5L933.5640419642856,188.5L934.3465767857142,188.5L935.1291116071427,188.5L936.6941812499999,188.5L938.259250892857,188.5L939.0417857142857,188.5L939.8243205357143,188.5L940.6068553571428,188.5L942.1719249999999,188.5L942.9544598214286,188.5L943.7369946428571,188.5L944.5195294642856,188.5L945.3020642857142,188.5L947.6496687499999,188.5L948.4322035714285,188.5L950.7798080357143,188.5L951.5623428571428,188.5L952.3448776785714,188.5L954.6924821428571,188.5L955.4750169642856,188.5L957.0400866071428,188.5L957.8226214285714,188.5L958.6051562499999,188.5L959.3876910714284,188.5L960.170225892857,188.5L960.9527607142857,188.5L961.7352955357143,188.5L962.5178303571428,188.5L963.3003651785714,188.5L964.0829,188.5L965.6479696428571,188.5L966.4305044642856,188.5L967.2130392857142,188.5L968.7781089285713,188.5L969.5606437499999,188.5L970.3431785714284,188.5L971.125713392857,188.5L971.9082482142857,188.5L972.6907830357143,188.5L973.4733178571428,188.5L974.2558526785713,188.5L975.0383875,188.5L975.8209223214285,188.5L976.6034571428571,188.5L978.1685267857142,188.5L978.9510616071428,188.5L979.7335964285713,188.5L980.51613125,188.5L981.2986660714284,188.5L982.0812008928572,188.5L982.8637357142857,188.5L983.6462705357143,188.5L984.4288053571428,188.5L985.2113401785713,188.5L985.993875,188.5L986.7764098214285,188.5L987.5589446428571,188.5L988.3414794642856,188.5L989.9065491071428,188.5L990.6890839285713,188.5L991.47161875,188.5L992.2541535714284,188.5L993.0366883928572,188.5L993.8192232142857,188.5L994.6017580357142,188.5L997.7318973214285,188.5L999.2969669642856,188.5L1000.0795017857141,188.5L1001.6445714285713,188.5L1002.42710625,188.5L1003.2096410714285,188.5L1003.9921758928572,188.5L1004.7747107142857,188.5L1006.3397803571428,188.5L1007.1223151785713,188.5L1007.90485,188.5L1008.6873848214285,188.5L1009.469919642857,188.5L1010.2524544642856,188.5L1011.0349892857142,188.5L1011.8175241071428,188.5L1012.6000589285713,188.5L1013.38259375,188.5L1014.1651285714285,188.5L1014.9476633928571,188.5L1015.7301982142857,188.5L1016.5127330357142,188.5L1017.2952678571428,188.5L1018.0778026785713,188.5L1018.8603375,188.5L1019.6428723214285,188.5L1020.425407142857,188.5L1021.2079419642856,188.5L1022.7730116071428,188.5L1023.5555464285713,188.5L1024.33808125,188.5L1025.903150892857,188.5L1026.6856857142857,188.5L1027.4682205357142,188.5L1028.250755357143,188.5L1029.0332901785714,188.5L1029.815825,188.5L1031.3808946428571,188.5L1032.9459642857141,188.5L1034.5110339285714,188.5L1035.2935687499998,188.5L1036.858638392857,188.5L1037.6411732142856,188.5L1038.4237080357143,188.5L1039.2062428571428,188.5L1039.9887776785713,188.5L1040.7713124999998,188.5L1042.336382142857,188.5L1043.1189169642857,188.5L1043.9014517857142,188.5L1044.6839866071427,188.5L1045.4665214285715,188.5L1046.24905625,188.5L1047.0315910714285,188.5L1047.814125892857,188.5L1048.5966607142857,188.5L1049.3791955357142,188.5L1050.9442651785714,188.5L1051.7268,188.5L1052.5093348214286,188.5L1054.0744044642856,188.5L1054.8569392857141,188.5L1055.6394741071426,188.5L1056.4220089285714,188.5" style="fill: none;" fill="none"></path></g><g><path style="fill: none;" fill="none" stroke="none" stroke-width="1px"></path></g><g><path stroke="rgb(255, 112, 67)" stroke-width="2px" d="M79.03601696428571,188.5L79.81855178571428,188.5L80.60108660714285,188.5L81.38362142857143,188.5L82.16615624999999,188.5L82.94869107142857,188.5L83.73122589285714,188.5L84.51376071428571,188.5L85.29629553571428,188.5L86.07883035714285,188.5L86.86136517857142,188.5L87.6439,188.5L88.42643482142856,188.5L89.20896964285714,188.5L89.99150446428571,188.5L90.77403928571427,188.5L91.55657410714285,188.5L92.33910892857142,188.5L93.12164375,188.5" style="fill: none;" fill="none"></path></g></g></g></g><g opacity="0.2"><g><g><g><path stroke="rgb(204, 51, 17)" stroke-width="2px" d="M79.81855178571428,188.5L81.38362142857143,188.5L82.94869107142857,188.5L83.73122589285714,188.5L85.29629553571428,188.5L86.86136517857142,188.5L87.6439,188.5L88.42643482142856,188.5L89.20896964285714,188.5L89.99150446428571,188.5L90.77403928571427,188.5L91.55657410714285,188.5L92.33910892857142,188.5L93.12164375,188.5L93.90417857142856,188.5L94.68671339285713,188.5L95.46924821428571,188.5L96.25178303571428,188.5L97.03431785714284,188.5L97.81685267857142,188.5L98.59938749999999,188.5L100.16445714285713,188.5L102.51206160714285,188.5L103.29459642857142,188.5L104.07713125,188.5L104.85966607142856,188.5L105.64220089285715,188.5L107.20727053571427,188.5L109.554875,188.5L110.33740982142857,188.5L111.9024794642857,188.5L112.68501428571427,188.5L113.46754910714286,188.5L114.25008392857143,188.5L115.03261874999998,188.5L115.81515357142857,188.5L117.3802232142857,188.5L118.16275803571428,188.5L119.72782767857143,188.5L120.5103625,188.5L121.29289732142855,188.5L122.07543214285714,188.5L122.85796696428571,188.5L123.64050178571426,188.5L125.20557142857142,188.5L125.98810625,188.5L126.77064107142856,188.5L127.55317589285713,188.5L128.3357107142857,188.5L129.11824553571427,188.5L129.90078035714285,188.5L130.68331517857143,188.5L131.46585,188.5L132.24838482142857,188.5L133.03091964285713,188.5L134.59598928571427,188.5L135.37852410714285,188.5L136.16105892857144,188.5L136.94359375,188.5L138.50866339285713,188.5L139.2911982142857,188.5L140.07373303571427,188.5L140.85626785714283,188.5L142.4213375,188.5L143.20387232142858,188.5L144.76894196428572,188.5L145.5514767857143,188.5L146.33401160714283,188.5L147.1165464285714,188.5L147.89908125,188.5L148.68161607142855,188.5L150.24668571428572,188.5L151.02922053571427,188.5L151.81175535714283,188.5L152.5942901785714,188.5L154.15935982142855,188.5L154.94189464285714,188.5L156.50696428571428,188.5L157.28949910714286,188.5L158.07203392857141,188.5L158.85456874999997,188.5L159.63710357142855,188.5L160.41963839285714,188.5L161.2021732142857,188.5L161.98470803571428,188.5L163.54977767857144,188.5L164.33231249999997,188.5L165.11484732142856,188.5L165.89738214285714,188.5L167.46245178571428,188.5L168.24498660714286,188.5L169.02752142857142,188.5L169.81005624999997,188.5L170.59259107142856,188.5L171.3751258928571,188.5L172.1576607142857,188.5L172.94019553571428,188.5L173.72273035714284,188.5L175.2878,188.5L176.07033482142856,188.5L176.85286964285712,188.5L177.6354044642857,188.5L178.41793928571428,188.5L179.98300892857142,188.5L180.76554375,188.5L183.1131482142857,188.5L183.89568303571426,188.5L185.46075267857142,188.5L186.2432875,188.5L187.80835714285712,188.5L189.37342678571426,188.5L190.15596160714284,188.5L190.93849642857143,188.5L191.72103124999998,188.5L192.50356607142857,188.5L193.28610089285715,188.5L194.85117053571426,188.5L195.63370535714284,188.5L196.41624017857143,188.5L197.19877499999998,188.5L198.76384464285715,188.5L199.54637946428568,188.5L200.32891428571426,188.5L201.8939839285714,188.5L202.67651874999999,188.5L203.45905357142857,188.5L205.0241232142857,188.5L205.80665803571426,188.5L207.3717276785714,188.5L208.1542625,188.5L209.71933214285713,188.5L210.5018669642857,188.5L211.2844017857143,188.5L212.8494714285714,188.5L213.63200625,188.5L214.41454107142854,188.5L215.9796107142857,188.5L216.7621455357143,188.5L217.54468035714282,188.5L218.3272151785714,188.5L219.89228482142855,188.5L220.67481964285713,188.5L221.45735446428571,188.5L222.23988928571427,188.5L223.02242410714285,188.5L223.8049589285714,188.5L224.58749374999996,188.5L225.37002857142855,188.5L226.15256339285713,188.5L227.71763303571427,188.5L228.50016785714286,188.5L230.84777232142855,188.5L233.97791160714286,188.5L234.7604464285714,188.5L236.32551607142855,188.5L237.10805089285714,188.5L237.8905857142857,188.5L239.45565535714286,188.5L240.23819017857141,188.5L241.020725,188.5L241.80325982142855,188.5L242.5857946428571,188.5L244.93339910714283,188.5L245.71593392857142,188.5L246.49846875,188.5L247.28100357142853,188.5L248.8460732142857,188.5L249.62860803571428,188.5L250.41114285714283,188.5L251.19367767857142,188.5L251.9762125,188.5L252.75874732142856,188.5L253.5412821428571,188.5L255.10635178571425,188.5L255.88888660714284,188.5L256.6714214285714,188.5L258.23649107142853,188.5L259.01902589285714,188.5L259.8015607142857,188.5L260.58409553571425,188.5L261.36663035714287,188.5L262.1491651785714,188.5L262.9317,188.5L264.49676964285715,188.5L265.2793044642857,188.5L266.84437410714287,188.5L267.6269089285714,188.5L268.40944375,188.5L269.97451339285715,188.5L270.7570482142857,188.5L271.53958303571426,188.5L272.32211785714287,188.5L273.1046526785714,188.5L273.8871875,188.5L274.66972232142854,188.5L275.45225714285715,188.5L276.2347919642857,188.5L277.01732678571426,188.5L277.7998616071428,188.5L278.5823964285714,188.5L280.93000089285715,188.5L281.71253571428565,188.5L282.49507053571426,188.5L283.2776053571428,188.5L284.842675,188.5L285.6252098214286,188.5L286.40774464285715,188.5L287.97281428571426,188.5L289.53788392857143,188.5L291.1029535714286,188.5L291.8854883928571,188.5L292.66802321428565,188.5L293.45055803571427,188.5L294.2330928571428,188.5L295.7981625,188.5L296.5806973214286,188.5L297.3632321428571,188.5L298.14576696428566,188.5L298.92830178571427,188.5L299.7108366071428,188.5L300.49337142857144,188.5L301.27590625,188.5L305.1885803571428,188.5L306.75365,188.5L307.53618482142855,188.5L309.1012544642857,188.5L309.8837892857143,188.5L310.6663241071428,188.5L311.44885892857144,188.5L312.23139374999994,188.5L313.01392857142855,188.5L313.7964633928571,188.5L314.5789982142857,188.5L315.3615330357143,188.5L316.14406785714283,188.5L316.92660267857144,188.5L319.2742071428571,188.5L320.0567419642857,188.5L320.8392767857143,188.5L321.6218116071429,188.5L322.4043464285714,188.5L323.96941607142855,188.5L324.7519508928571,188.5L326.3170205357143,188.5L327.0995553571429,188.5L327.8820901785714,188.5L328.66462499999994,188.5L329.44715982142856,188.5L330.2296946428571,188.5L331.0122294642857,188.5L331.7947642857143,188.5L332.57729910714284,188.5L333.3598339285714,188.5L334.14236874999995,188.5L334.92490357142856,188.5L335.7074383928571,188.5L337.2725080357143,188.5L338.05504285714284,188.5L339.62011249999995,188.5L341.1851821428571,188.5L342.7502517857142,188.5L344.3153214285714,188.5L345.09785625,188.5L345.88039107142856,188.5L346.6629258928571,188.5L347.4454607142857,188.5L348.22799553571423,188.5L349.01053035714284,188.5L349.7930651785714,188.5L350.5756,188.5L351.35813482142856,188.5L352.1406696428571,188.5L352.9232044642857,188.5L353.70573928571423,188.5L354.48827410714284,188.5L355.2708089285714,188.5L356.05334375,188.5L356.83587857142857,188.5L357.61841339285706,188.5L358.4009482142857,188.5L359.18348303571423,188.5L359.96601785714284,188.5L360.7485526785714,188.5L361.5310875,188.5L362.31362232142857,188.5L363.09615714285707,188.5L363.8786919642857,188.5L364.66122678571423,188.5L365.44376160714285,188.5L366.2262964285714,188.5L367.00883125,188.5L368.5739008928571,188.5L369.3564357142857,188.5L370.92150535714285,188.5L371.7040401785714,188.5L372.486575,188.5L373.2691098214285,188.5L374.0516446428571,188.5L374.8341794642857,188.5L375.61671428571424,188.5L377.1817839285714,188.5L377.96431874999996,188.5L379.52938839285713,188.5L380.3119232142857,188.5L381.0944580357143,188.5L381.87699285714285,188.5L382.6595276785714,188.5L384.2245973214285,188.5L385.00713214285713,188.5L385.7896669642857,188.5L386.5722017857143,188.5L388.91980624999997,188.5L390.48487589285713,188.5L391.2674107142857,188.5L392.83248035714286,188.5L393.61501517857135,188.5L394.39754999999997,188.5L395.96261964285713,188.5L396.7451544642857,188.5L398.3102241071428,188.5L399.87529374999997,188.5L400.6578285714285,188.5L401.44036339285714,188.5L403.0054330357143,188.5L403.7879678571428,188.5L404.5705026785714,188.5L406.91810714285714,188.5L407.7006419642857,188.5L408.48317678571425,188.5L409.2657116071428,188.5L410.0482464285714,188.5L410.83078125,188.5L412.39585089285714,188.5L413.96092053571425,188.5L415.5259901785714,188.5L417.09105982142853,188.5L419.43866428571425,188.5L420.2211991071428,188.5L421.78626875,188.5L422.5688035714286,188.5L423.35133839285714,188.5L424.13387321428564,188.5L424.91640803571426,188.5L426.4814776785714,188.5L427.2640125,188.5L428.0465473214286,188.5L428.8290821428571,188.5L429.61161696428564,188.5L430.39415178571426,188.5L431.1766866071428,188.5L431.9592214285714,188.5L432.74175625,188.5L433.5242910714286,188.5L434.3068258928571,188.5L435.08936071428565,188.5L436.6544303571428,188.5L437.4369651785714,188.5L438.2195,188.5L439.00203482142854,188.5L439.7845696428571,188.5L440.56710446428565,188.5L441.34963928571426,188.5L442.1321741071428,188.5L442.91470892857143,188.5L443.69724375,188.5L444.47977857142854,188.5L445.2623133928571,188.5L446.0448482142857,188.5L446.82738303571426,188.5L447.6099178571428,188.5L448.39245267857143,188.5L449.17498749999993,188.5L449.95752232142854,188.5L450.7400571428571,188.5L452.30512678571426,188.5L453.0876616071428,188.5L456.2178008928571,188.5L457.78287053571427,188.5L458.5654053571429,188.5L459.3479401785714,188.5L460.13047499999993,188.5L460.91300982142855,188.5L461.6955446428571,188.5L463.26061428571427,188.5L464.0431491071429,188.5L464.8256839285714,188.5L467.1732883928571,188.5L467.9558232142857,188.5L469.5208928571428,188.5L472.6510321428571,188.5L473.4335669642857,188.5L474.2161017857143,188.5L474.9986366071428,188.5L475.7811714285714,188.5L476.56370624999994,188.5L477.34624107142855,188.5L478.1287758928571,188.5L478.9113107142857,188.5L479.6938455357142,188.5L481.2589151785714,188.5L482.04145,188.5L482.82398482142855,188.5L483.6065196428571,188.5L484.38905446428566,188.5L485.1715892857142,188.5L485.95412410714283,188.5L488.30172857142855,188.5L489.0842633928571,188.5L489.86679821428567,188.5L494.56200714285706,188.5L496.1270767857142,188.5L496.90961160714284,188.5L497.6921464285714,188.5L498.47468125,188.5L499.25721607142856,188.5L500.03975089285706,188.5L500.82228571428567,188.5L501.6048205357142,188.5L502.38735535714284,188.5L503.1698901785714,188.5L503.952425,188.5L504.7349598214285,188.5L505.5174946428571,188.5L506.30002946428567,188.5L507.0825642857142,188.5L507.86509910714284,188.5L508.6476339285714,188.5L510.2127035714285,188.5L510.9952383928571,188.5L511.7777732142857,188.5L513.3428428571428,188.5L514.9079125,188.5L515.6904473214286,188.5L516.4729821428571,188.5L517.2555169642857,188.5L518.0380517857143,188.5L519.6031214285714,188.5L520.3856562499999,188.5L521.1681910714285,188.5L521.9507258928571,188.5L522.7332607142857,188.5L523.5157955357142,188.5L524.2983303571428,188.5L525.0808651785713,188.5L525.8634,188.5L526.6459348214286,188.5L527.4284696428571,188.5L528.2110044642857,188.5L529.7760741071429,188.5L530.5586089285714,188.5L531.3411437499999,188.5L532.1236785714285,188.5L532.9062133928571,188.5L533.6887482142857,188.5L534.4712830357142,188.5L535.2538178571428,188.5L536.0363526785713,188.5L536.8188875,188.5L537.6014223214286,188.5L538.3839571428571,188.5L539.1664919642857,188.5L539.9490267857143,188.5L541.5140964285714,188.5L542.2966312499999,188.5L543.0791660714285,188.5L544.6442357142857,188.5L545.4267705357142,188.5L546.2093053571429,188.5L546.9918401785714,188.5L548.5569098214285,188.5L549.3394446428571,188.5L550.1219794642857,188.5L550.9045142857143,188.5L551.6870491071428,188.5L552.4695839285714,188.5L553.25211875,188.5L554.8171883928571,188.5L556.3822580357142,188.5L557.1647928571429,188.5L557.9473276785714,188.5L560.2949321428571,188.5L563.4250714285713,188.5L564.20760625,188.5L564.9901410714285,188.5L565.7726758928571,188.5L566.5552107142856,188.5L567.3377455357142,188.5L568.1202803571429,188.5L568.9028151785714,188.5L571.2504196428572,188.5L572.0329544642857,188.5L572.8154892857143,188.5L573.5980241071428,188.5L575.16309375,188.5L575.9456285714285,188.5L576.7281633928571,188.5L578.2932330357141,188.5L579.0757678571429,188.5L579.8583026785714,188.5L580.6408375,188.5L581.4233723214285,188.5L582.2059071428572,188.5L582.9884419642857,188.5L583.7709767857142,188.5L584.5535116071428,188.5L585.3360464285713,188.5L586.11858125,188.5L586.9011160714285,188.5L587.6836508928571,188.5L588.4661857142856,188.5L589.2487205357141,188.5L590.0312553571429,188.5L592.3788598214285,188.5L593.1613946428572,188.5L594.7264642857142,188.5L595.5089991071428,188.5L596.2915339285713,188.5L597.07406875,188.5L597.8566035714285,188.5L598.639138392857,188.5L599.4216732142856,188.5L600.2042080357143,188.5L600.9867428571429,188.5L601.7692776785714,188.5L602.5518125,188.5L604.1168821428571,188.5L604.8994169642857,188.5L605.6819517857142,188.5L606.4644866071428,188.5L607.2470214285713,188.5L608.02955625,188.5L608.8120910714285,188.5L609.594625892857,188.5L610.3771607142857,188.5L611.1596955357143,188.5L611.9422303571429,188.5L612.7247651785714,188.5L613.5073,188.5L614.2898348214285,188.5L615.0723696428571,188.5L615.8549044642857,188.5L616.6374392857142,188.5L617.4199741071428,188.5L618.2025089285714,188.5L618.9850437499999,188.5L620.550113392857,188.5L622.1151830357143,188.5L623.6802526785714,188.5L626.0278571428571,188.5L626.8103919642857,188.5L627.5929267857142,188.5L628.3754616071428,188.5L629.1579964285714,188.5L629.9405312499999,188.5L630.7230660714285,188.5L631.505600892857,188.5L632.2881357142857,188.5L633.0706705357143,188.5L633.8532053571429,188.5L634.6357401785714,188.5L635.4182749999999,188.5L637.7658794642857,188.5L638.5484142857142,188.5L639.3309491071427,188.5L640.8960187499999,188.5L641.6785535714286,188.5L642.461088392857,188.5L643.2436232142858,188.5L644.0261580357143,188.5L644.8086928571428,188.5L645.5912276785714,188.5L646.3737624999999,188.5L647.1562973214286,188.5L649.5039017857142,188.5L650.2864366071427,188.5L651.0689714285714,188.5L651.8515062499999,188.5L653.416575892857,188.5L654.1991107142858,188.5L654.9816455357143,188.5L655.7641803571428,188.5L656.5467151785714,188.5L657.3292499999999,188.5L658.1117848214286,188.5L658.8943196428571,188.5L659.6768544642856,188.5L660.4593892857142,188.5L661.2419241071427,188.5L662.0244589285714,188.5L662.80699375,188.5L663.5895285714286,188.5L665.1545982142857,188.5L665.9371330357143,188.5L666.7196678571428,188.5L667.5022026785714,188.5L668.2847374999999,188.5L669.0672723214286,188.5L669.8498071428571,188.5L670.6323419642856,188.5L672.9799464285715,188.5L673.76248125,188.5L675.3275508928571,188.5L676.1100857142857,188.5L676.8926205357143,188.5L677.6751553571428,188.5L678.4576901785714,188.5L679.2402249999999,188.5L680.8052946428571,188.5L681.5878294642856,188.5L682.3703642857142,188.5L683.1528991071428,188.5L683.9354339285715,188.5L684.71796875,188.5L685.5005035714285,188.5L686.2830383928571,188.5L687.8481080357143,188.5L688.6306428571428,188.5L689.4131776785714,188.5L690.9782473214285,188.5L691.7607821428571,188.5L692.5433169642856,188.5L693.3258517857142,188.5L694.1083866071428,188.5L694.8909214285713,188.5L696.4559910714285,188.5L697.2385258928571,188.5L698.0210607142857,188.5L698.8035955357143,188.5L699.5861303571428,188.5L700.3686651785713,188.5L701.1512,188.5L701.9337348214285,188.5L702.7162696428571,188.5L703.4988044642856,188.5L704.2813392857142,188.5L705.0638741071429,188.5L706.62894375,188.5L708.1940133928572,188.5L708.9765482142857,188.5L709.7590830357143,188.5L710.5416178571428,188.5L711.3241526785713,188.5L712.1066875,188.5L713.6717571428571,188.5L714.4542919642856,188.5L715.2368267857141,188.5L716.0193616071429,188.5L716.8018964285714,188.5L717.58443125,188.5L719.1495008928572,188.5L720.7145705357142,188.5L721.4971053571428,188.5L723.062175,188.5L723.8447098214285,188.5L724.6272446428571,188.5L726.9748491071429,188.5L727.7573839285714,188.5L728.53991875,188.5L729.3224535714285,188.5L730.1049883928572,188.5L730.8875232142857,188.5L731.6700580357142,188.5L732.4525928571428,188.5L733.2351276785713,188.5L734.0176625,188.5L734.8001973214285,188.5L735.582732142857,188.5L736.3652669642856,188.5L737.9303366071429,188.5L738.7128714285714,188.5L740.2779410714285,188.5L741.0604758928571,188.5L741.8430107142857,188.5L742.6255455357142,188.5L744.1906151785713,188.5L744.97315,188.5L745.7556848214285,188.5L746.538219642857,188.5L748.1032892857143,188.5L749.6683589285714,188.5L751.2334285714285,188.5L752.0159633928571,188.5L752.7984982142857,188.5L753.5810330357142,188.5L754.3635678571428,188.5L757.493707142857,188.5L758.2762419642856,188.5L759.0587767857143,188.5L759.8413116071429,188.5L760.6238464285714,188.5L762.1889160714286,188.5L762.9714508928571,188.5L763.7539857142857,188.5L764.5365205357142,188.5L765.3190553571428,188.5L766.1015901785714,188.5L766.8841249999999,188.5L767.6666598214285,188.5L768.449194642857,188.5L769.2317294642856,188.5L770.7967991071429,188.5L771.5793339285714,188.5L772.3618687499999,188.5L773.1444035714286,188.5L773.9269383928571,188.5L774.7094732142857,188.5L775.4920080357142,188.5L776.2745428571427,188.5L777.0570776785714,188.5L777.8396124999999,188.5L778.6221473214285,188.5L779.404682142857,188.5L780.1872169642858,188.5L780.9697517857143,188.5L781.7522866071428,188.5L782.5348214285714,188.5L783.3173562499999,188.5L784.8824258928571,188.5L785.6649607142857,188.5L786.4474955357142,188.5L787.2300303571427,188.5L788.0125651785714,188.5L788.7950999999999,188.5L789.5776348214285,188.5L790.360169642857,188.5L791.1427044642858,188.5L791.9252392857143,188.5L792.7077741071428,188.5L793.4903089285714,188.5L795.0553785714286,188.5L795.8379133928571,188.5L796.6204482142856,188.5L797.4029830357142,188.5L798.9680526785714,188.5L799.7505874999999,188.5L800.5331223214286,188.5L801.315657142857,188.5L802.0981919642857,188.5L802.8807267857143,188.5L804.4457964285714,188.5L805.2283312499999,188.5L806.7934008928571,188.5L807.5759357142856,188.5L808.3584705357142,188.5L809.1410053571428,188.5L809.9235401785714,188.5L810.7060749999999,188.5L812.271144642857,188.5L813.8362142857143,188.5L816.1838187499999,188.5L816.9663535714285,188.5L817.7488883928571,188.5L818.5314232142856,188.5L820.0964928571428,188.5L820.8790276785714,188.5L821.6615625,188.5L823.226632142857,188.5L824.0091669642857,188.5L824.7917017857143,188.5L825.5742366071428,188.5L827.13930625,188.5L827.9218410714285,188.5L828.7043758928571,188.5L829.4869107142856,188.5L830.2694455357142,188.5L831.0519803571428,188.5L831.8345151785713,188.5L832.61705,188.5L833.3995848214284,188.5L834.1821196428571,188.5L834.9646544642857,188.5L835.7471892857143,188.5L837.3122589285713,188.5L838.8773285714285,188.5L839.6598633928571,188.5L841.2249330357142,188.5L842.0074678571428,188.5L842.7900026785713,188.5L843.5725375,188.5L844.3550723214285,188.5L845.1376071428572,188.5L845.9201419642857,188.5L846.7026767857143,188.5L847.4852116071428,188.5L848.2677464285713,188.5L849.05028125,188.5L849.8328160714285,188.5L851.3978857142856,188.5L852.1804205357141,188.5L852.9629553571428,188.5L853.7454901785713,188.5L854.528025,188.5L855.3105598214285,188.5L856.8756294642857,188.5L858.4406991071428,188.5L859.2232339285713,188.5L860.7883035714285,188.5L861.5708383928571,188.5L863.1359080357141,188.5L863.9184428571428,188.5L864.7009776785713,188.5L865.4835125,188.5L867.0485821428572,188.5L867.8311169642857,188.5L868.6136517857142,188.5L870.1787214285713,188.5L870.96125625,188.5L871.7437910714285,188.5L872.526325892857,188.5L874.0913955357142,188.5L874.8739303571429,188.5L876.439,188.5L878.0040696428571,188.5L878.7866044642857,188.5L879.5691392857142,188.5L880.3516741071428,188.5L881.1342089285713,188.5L881.91674375,188.5L882.6992785714285,188.5L884.2643482142856,188.5L885.8294178571429,188.5L886.6119526785714,188.5L887.3944875,188.5L888.1770223214285,188.5L888.9595571428571,188.5L889.7420919642857,188.5L890.5246267857142,188.5L891.3071616071428,188.5L892.0896964285714,188.5L892.8722312499999,188.5L894.437300892857,188.5L895.2198357142856,188.5L896.0023705357142,188.5L896.7849053571429,188.5L899.1325098214286,188.5L899.9150446428571,188.5L900.6975794642857,188.5L901.4801142857142,188.5L902.2626491071428,188.5L903.8277187499999,188.5L904.6102535714285,188.5L905.392788392857,188.5L906.1753232142856,188.5L906.9578580357143,188.5L910.8705321428571,188.5L911.6530669642857,188.5L912.4356017857142,188.5L913.2181366071427,188.5L914.0006714285714,188.5L914.7832062499999,188.5L915.5657410714285,188.5L916.348275892857,188.5L917.1308107142858,188.5L917.9133455357143,188.5L918.6958803571428,188.5L919.4784151785714,188.5L920.2609499999999,188.5L921.0434848214286,188.5L921.8260196428571,188.5L922.6085544642857,188.5L923.3910892857142,188.5L924.1736241071427,188.5L924.9561589285714,188.5L925.7386937499999,188.5L926.5212285714285,188.5L927.303763392857,188.5L928.0862982142858,188.5L928.8688330357143,188.5L930.4339026785714,188.5L931.9989723214286,188.5L932.7815071428571,188.5L933.5640419642856,188.5L934.3465767857142,188.5L935.1291116071427,188.5L936.6941812499999,188.5L938.259250892857,188.5L939.0417857142857,188.5L939.8243205357143,188.5L940.6068553571428,188.5L942.1719249999999,188.5L942.9544598214286,188.5L943.7369946428571,188.5L944.5195294642856,188.5L945.3020642857142,188.5L947.6496687499999,188.5L948.4322035714285,188.5L950.7798080357143,188.5L951.5623428571428,188.5L952.3448776785714,188.5L954.6924821428571,188.5L955.4750169642856,188.5L957.0400866071428,188.5L957.8226214285714,188.5L958.6051562499999,188.5L959.3876910714284,188.5L960.170225892857,188.5L960.9527607142857,188.5L961.7352955357143,188.5L962.5178303571428,188.5L963.3003651785714,188.5L964.0829,188.5L965.6479696428571,188.5L966.4305044642856,188.5L967.2130392857142,188.5L968.7781089285713,188.5L969.5606437499999,188.5L970.3431785714284,188.5L971.125713392857,188.5L971.9082482142857,188.5L972.6907830357143,188.5L973.4733178571428,188.5L974.2558526785713,188.5L975.0383875,188.5L975.8209223214285,188.5L976.6034571428571,188.5L978.1685267857142,188.5L978.9510616071428,188.5L979.7335964285713,188.5L980.51613125,188.5L981.2986660714284,188.5L982.0812008928572,188.5L982.8637357142857,188.5L983.6462705357143,188.5L984.4288053571428,188.5L985.2113401785713,188.5L985.993875,188.5L986.7764098214285,188.5L987.5589446428571,188.5L988.3414794642856,188.5L989.9065491071428,188.5L990.6890839285713,188.5L991.47161875,188.5L992.2541535714284,188.5L993.0366883928572,188.5L993.8192232142857,188.5L994.6017580357142,188.5L997.7318973214285,188.5L999.2969669642856,188.5L1000.0795017857141,188.5L1001.6445714285713,188.5L1002.42710625,188.5L1003.2096410714285,188.5L1003.9921758928572,188.5L1004.7747107142857,188.5L1006.3397803571428,188.5L1007.1223151785713,188.5L1007.90485,188.5L1008.6873848214285,188.5L1009.469919642857,188.5L1010.2524544642856,188.5L1011.0349892857142,188.5L1011.8175241071428,188.5L1012.6000589285713,188.5L1013.38259375,188.5L1014.1651285714285,188.5L1014.9476633928571,188.5L1015.7301982142857,188.5L1016.5127330357142,188.5L1017.2952678571428,188.5L1018.0778026785713,188.5L1018.8603375,188.5L1019.6428723214285,188.5L1020.425407142857,188.5L1021.2079419642856,188.5L1022.7730116071428,188.5L1023.5555464285713,188.5L1024.33808125,188.5L1025.903150892857,188.5L1026.6856857142857,188.5L1027.4682205357142,188.5L1028.250755357143,188.5L1029.0332901785714,188.5L1029.815825,188.5L1031.3808946428571,188.5L1032.9459642857141,188.5L1034.5110339285714,188.5L1035.2935687499998,188.5L1036.858638392857,188.5L1037.6411732142856,188.5L1038.4237080357143,188.5L1039.2062428571428,188.5L1039.9887776785713,188.5L1040.7713124999998,188.5L1042.336382142857,188.5L1043.1189169642857,188.5L1043.9014517857142,188.5L1044.6839866071427,188.5L1045.4665214285715,188.5L1046.24905625,188.5L1047.0315910714285,188.5L1047.814125892857,188.5L1048.5966607142857,188.5L1049.3791955357142,188.5L1050.9442651785714,188.5L1051.7268,188.5L1052.5093348214286,188.5L1054.0744044642856,188.5L1054.8569392857141,188.5L1055.6394741071426,188.5L1056.4220089285714,188.5" style="fill: none;" fill="none"></path></g><g><path style="fill: none;" fill="none" stroke="none" stroke-width="1px"></path></g><g><path stroke="rgb(255, 112, 67)" stroke-width="2px" d="M79.03601696428571,188.5L79.81855178571428,188.5L80.60108660714285,188.5L81.38362142857143,188.5L82.16615624999999,188.5L82.94869107142857,188.5L83.73122589285714,188.5L84.51376071428571,188.5L85.29629553571428,188.5L86.07883035714285,188.5L86.86136517857142,188.5L87.6439,188.5L88.42643482142856,188.5L89.20896964285714,188.5L89.99150446428571,188.5L90.77403928571427,188.5L91.55657410714285,188.5L92.33910892857142,188.5L93.12164375,188.5" style="fill: none;" fill="none"></path></g></g></g></g></g></g><g transform="translate(30, 377)" clip-path="url(#clip_1)"><clipPath id="clip_1"><rect width="1095" height="23"></rect></clipPath><g><g><line x1="0" y1="0" x2="0" y2="5" style="visibility: inherit;" fill="rgb(0, 0, 0)" stroke="rgb(204, 204, 204)" stroke-width="1px"></line><line x1="78.25348214285714" y1="0" x2="78.25348214285714" y2="5" style="visibility: inherit;" fill="rgb(0, 0, 0)" stroke="rgb(204, 204, 204)" stroke-width="1px"></line><line x1="156.50696428571428" y1="0" x2="156.50696428571428" y2="5" style="visibility: inherit;" fill="rgb(0, 0, 0)" stroke="rgb(204, 204, 204)" stroke-width="1px"></line><line x1="234.7604464285714" y1="0" x2="234.7604464285714" y2="5" style="visibility: inherit;" fill="rgb(0, 0, 0)" stroke="rgb(204, 204, 204)" stroke-width="1px"></line><line x1="313.01392857142855" y1="0" x2="313.01392857142855" y2="5" style="visibility: inherit;" fill="rgb(0, 0, 0)" stroke="rgb(204, 204, 204)" stroke-width="1px"></line><line x1="391.2674107142857" y1="0" x2="391.2674107142857" y2="5" style="visibility: inherit;" fill="rgb(0, 0, 0)" stroke="rgb(204, 204, 204)" stroke-width="1px"></line><line x1="469.5208928571428" y1="0" x2="469.5208928571428" y2="5" style="visibility: inherit;" fill="rgb(0, 0, 0)" stroke="rgb(204, 204, 204)" stroke-width="1px"></line><line x1="547.774375" y1="0" x2="547.774375" y2="5" style="visibility: inherit;" fill="rgb(0, 0, 0)" stroke="rgb(204, 204, 204)" stroke-width="1px"></line><line x1="626.0278571428571" y1="0" x2="626.0278571428571" y2="5" style="visibility: inherit;" fill="rgb(0, 0, 0)" stroke="rgb(204, 204, 204)" stroke-width="1px"></line><line x1="704.2813392857142" y1="0" x2="704.2813392857142" y2="5" style="visibility: inherit;" fill="rgb(0, 0, 0)" stroke="rgb(204, 204, 204)" stroke-width="1px"></line><line x1="782.5348214285714" y1="0" x2="782.5348214285714" y2="5" style="visibility: inherit;" fill="rgb(0, 0, 0)" stroke="rgb(204, 204, 204)" stroke-width="1px"></line><line x1="860.7883035714285" y1="0" x2="860.7883035714285" y2="5" style="visibility: inherit;" fill="rgb(0, 0, 0)" stroke="rgb(204, 204, 204)" stroke-width="1px"></line><line x1="939.0417857142857" y1="0" x2="939.0417857142857" y2="5" style="visibility: inherit;" fill="rgb(0, 0, 0)" stroke="rgb(204, 204, 204)" stroke-width="1px"></line><line x1="1017.2952678571428" y1="0" x2="1017.2952678571428" y2="5" style="visibility: inherit;" fill="rgb(0, 0, 0)" stroke="rgb(204, 204, 204)" stroke-width="1px"></line><line x1="1095.54875" y1="0" x2="1095.54875" y2="5" style="visibility: inherit;" fill="rgb(0, 0, 0)" stroke="rgb(204, 204, 204)" stroke-width="1px"></line></g><g transform="translate(0, 8)"><text x="0" y="0" dx="0em" dy="0.95em" style="text-anchor: middle; visibility: hidden; font-family: Roboto, sans-serif; font-size: 12px; font-weight: 200;" fill="rgb(33, 33, 33)" stroke="none" stroke-width="1px">-100</text><text x="78.25348214285714" y="0" dx="0em" dy="0.95em" style="text-anchor: middle; visibility: inherit; font-family: Roboto, sans-serif; font-size: 12px; font-weight: 200;" fill="rgb(33, 33, 33)" stroke="none" stroke-width="1px">0</text><text x="156.50696428571428" y="0" dx="0em" dy="0.95em" style="text-anchor: middle; visibility: inherit; font-family: Roboto, sans-serif; font-size: 12px; font-weight: 200;" fill="rgb(33, 33, 33)" stroke="none" stroke-width="1px">100</text><text x="234.7604464285714" y="0" dx="0em" dy="0.95em" style="text-anchor: middle; visibility: inherit; font-family: Roboto, sans-serif; font-size: 12px; font-weight: 200;" fill="rgb(33, 33, 33)" stroke="none" stroke-width="1px">200</text><text x="313.01392857142855" y="0" dx="0em" dy="0.95em" style="text-anchor: middle; visibility: inherit; font-family: Roboto, sans-serif; font-size: 12px; font-weight: 200;" fill="rgb(33, 33, 33)" stroke="none" stroke-width="1px">300</text><text x="391.2674107142857" y="0" dx="0em" dy="0.95em" style="text-anchor: middle; visibility: inherit; font-family: Roboto, sans-serif; font-size: 12px; font-weight: 200;" fill="rgb(33, 33, 33)" stroke="none" stroke-width="1px">400</text><text x="469.5208928571428" y="0" dx="0em" dy="0.95em" style="text-anchor: middle; visibility: inherit; font-family: Roboto, sans-serif; font-size: 12px; font-weight: 200;" fill="rgb(33, 33, 33)" stroke="none" stroke-width="1px">500</text><text x="547.774375" y="0" dx="0em" dy="0.95em" style="text-anchor: middle; visibility: inherit; font-family: Roboto, sans-serif; font-size: 12px; font-weight: 200;" fill="rgb(33, 33, 33)" stroke="none" stroke-width="1px">600</text><text x="626.0278571428571" y="0" dx="0em" dy="0.95em" style="text-anchor: middle; visibility: inherit; font-family: Roboto, sans-serif; font-size: 12px; font-weight: 200;" fill="rgb(33, 33, 33)" stroke="none" stroke-width="1px">700</text><text x="704.2813392857142" y="0" dx="0em" dy="0.95em" style="text-anchor: middle; visibility: inherit; font-family: Roboto, sans-serif; font-size: 12px; font-weight: 200;" fill="rgb(33, 33, 33)" stroke="none" stroke-width="1px">800</text><text x="782.5348214285714" y="0" dx="0em" dy="0.95em" style="text-anchor: middle; visibility: inherit; font-family: Roboto, sans-serif; font-size: 12px; font-weight: 200;" fill="rgb(33, 33, 33)" stroke="none" stroke-width="1px">900</text><text x="860.7883035714285" y="0" dx="0em" dy="0.95em" style="text-anchor: middle; visibility: inherit; font-family: Roboto, sans-serif; font-size: 12px; font-weight: 200;" fill="rgb(33, 33, 33)" stroke="none" stroke-width="1px">1k</text><text x="939.0417857142857" y="0" dx="0em" dy="0.95em" style="text-anchor: middle; visibility: inherit; font-family: Roboto, sans-serif; font-size: 12px; font-weight: 200;" fill="rgb(33, 33, 33)" stroke="none" stroke-width="1px">1.1k</text><text x="1017.2952678571428" y="0" dx="0em" dy="0.95em" style="text-anchor: middle; visibility: inherit; font-family: Roboto, sans-serif; font-size: 12px; font-weight: 200;" fill="rgb(33, 33, 33)" stroke="none" stroke-width="1px">1.2k</text><text x="1095.54875" y="0" dx="0em" dy="0.95em" style="text-anchor: middle; visibility: hidden; font-family: Roboto, sans-serif; font-size: 12px; font-weight: 200;" fill="rgb(33, 33, 33)" stroke="none" stroke-width="1px">1.3k</text></g><line x1="0" y1="0" x2="1095.54875" y2="0" fill="rgb(0, 0, 0)" stroke="rgb(204, 204, 204)" stroke-width="1px"></line></g></g></g></g></svg>